<svg xmlns="http://www.w3.org/2000/svg" version="1.1" id="bubble-bird" class="icon-bubble" x="0" y="0" width="32" height="32" viewBox="0" enable-background="new 0 0 32 32" xml:space="preserve">
  <path fill="#13769D" d="M29 0H3C1.3 0 0 1.3 0 3v20c0 1.7 1.3 3 3 3h21l5 6v-6c1.7 0 3-1.3 3-3V3C32 1.3 30.7 0 29 0zM28.6 18.8c-0.1 0-0.5-0.1-0.3 0.1 0 0 0.1 0.2 0.1 0.2 0 0.1-0.2 0.1-0.3 0.1 -0.2 0.1-0.6 0.2-0.8 0 0 0.1 0.1 0.1 0 0.2 -0.1 0-0.2 0-0.2 0.1 -0.2 0-0.3 0-0.5 0 -0.2 0-0.3 0-0.5-0.1 -0.2 0-0.3-0.1-0.5-0.2 0.1 0.2 0.2 0.4 0.4 0.6 0 0.1 0.1 0.1 0.1 0.2 0.1 0.1 0.5 0.5 0.2 0.5 -0.2 0.1-0.5-0.1-0.7-0.2 -0.3-0.2-0.6-0.3-0.9-0.5 0.1 0 0.1 0.3 0.1 0.4 -0.4 0.1-0.8-0.1-1.1-0.2 -0.1 0-0.2-0.1-0.3 0.1 -0.1 0.1-0.2 0.1-0.3 0.1 -0.3 0-0.5 0-0.8-0.1 -0.1 0-0.2 0-0.3 0 0 0-0.1 0-0.1 0 -0.2 0-0.3-0.1-0.4-0.1 -0.1 0-0.3 0-0.4 0 -0.2 0-0.3-0.1-0.4 0 -0.1 0-0.3 0.1-0.4 0 -0.1-0.1-0.2-0.1-0.4-0.2 -0.3 0-0.7 0.1-0.9-0.1l-0.2 0c-0.1 0.1-0.2 0-0.3 0 -0.2 0-0.6 0-0.5-0.3l0 0c-0.1 0-0.2 0-0.4 0.1 0 0-0.1 0-0.2-0.1 0 0 0 0 0 0l-0.1 0c-0.2 0.1-0.4 0.1-0.6 0 0 0-0.1-0.1-0.1-0.1 -0.1 0-0.1 0-0.2 0 -0.1 0-0.2-0.1-0.2-0.2 0 0 0 0-0.1 0l-0.5-0.1c0 0-0.1 0-0.1 0 -0.1 0-0.2-0.1-0.3-0.1 -0.1 0-0.2 0-0.3 0.1 -0.2 0.1-0.3-0.1-0.3-0.3 0-0.1 0-0.2 0-0.3 -0.2 0.1-0.5 0.1-0.6 0 -0.2-0.1-0.1-0.4 0-0.6 0 0.1-0.7 0-0.8-0.2 -0.2 0.1-0.4 0-0.6 0 -0.8 0-1.5 0.6-2.1 1.1 -0.6 0.6-1.2 1.3-1.6 2.1 -0.4 0.7-0.5 1-1.1 2.2C7.7 22.8 7 21.6 7 21.6s-1.5 0.1-1.5 0c0.9-1.2 1.6-2.1 2-2.5 0.6-0.6 1.2-1.2 1.6-1.9 0.5-0.7 0.8-1.3 0.9-2.2 0-0.3 0.1-0.6 0.1-0.8 0-0.1 0.2-0.7 0.3-0.7 -0.1 0-0.5 0.2-0.6 0.2 0 0-0.1 0-0.1 0.1C9.4 13.9 9.2 14 9 14c-0.2 0.1-1 0.3-0.9-0.2 -0.2 0.1-0.4 0.1-0.6-0.1 -0.1-0.1-0.1-0.1-0.1-0.2 0-0.1-0.1-0.2-0.1-0.2C7.1 13.2 7 13.2 6.8 13c-0.1-0.1-0.2-0.4-0.1-0.6 -0.2 0.1-0.4-0.1-0.5-0.3 0-0.1 0-0.2 0-0.3 0-0.1 0-0.1-0.1-0.1 -0.1 0-0.1-0.1-0.1-0.1 0 0-0.2-0.2-0.2-0.2 0-0.1 0.1-0.1 0-0.2 -0.1-0.1-0.1-0.1-0.2-0.3 0-0.1 0-0.3 0.1-0.4 -0.1 0-0.2-0.1-0.2-0.2 -0.1-0.2 0-0.3 0.1-0.4C5.5 9.9 5.3 9.7 5.3 9.5c0-0.1 0.1-0.2 0-0.2C5.3 9.2 5.2 9.2 5.1 9.1 5 9 4.9 8.9 4.9 8.7c0-0.1 0.2-0.3 0.3-0.2C4.8 8.4 4.5 8.1 4.4 7.8c0-0.2 0-0.3 0.2-0.3 0.1 0 0.3 0 0.2-0.1C4.7 7.2 4.2 6.7 4.4 6.6c0.1-0.1 0.2-0.1 0.3-0.1 0.2 0 0.4 0 0.6 0C5.2 6.2 4.9 5.9 4.7 5.6 4.5 5.5 4.3 5.3 4.2 5.1c-0.2-0.3 0.5 0 0.6 0C5.2 5.3 5.6 5.5 6 5.7 5.7 5.3 5.5 5 5.2 4.6 5.1 4.4 5 4.3 4.9 4.1c0-0.1-0.2-0.4 0-0.3 0.2 0 0.3 0.2 0.5 0.3 0.2 0.1 0.4 0.3 0.5 0.4C6.3 4.6 6.6 4.9 7 5.1 6.7 4.6 6.4 4 6.2 3.3 6.2 3.1 6 2.7 6.1 2.5c0-0.2 0.2-0.1 0.3 0 0.3 0.4 0.5 0.9 0.8 1.3C7.3 4 7.4 4.2 7.6 4.4 7.8 4.7 8.1 5 8.4 5.2 8.4 5 8.3 4.7 8.2 4.4 8.1 4.1 7.9 3.8 7.8 3.5c-0.1-0.3-0.1-0.6 0-0.9 0-0.2 0.1-0.5 0.4-0.4 0.2 0.1 0.3 0.4 0.4 0.6 0.1 0.3 0.2 0.6 0.3 0.9 0.2 0.6 0.6 1.1 0.8 1.7C9.6 4.9 9.5 4.3 9.5 3.7c0-0.3 0-0.5 0-0.8 0-0.1 0-0.5 0.2-0.5C9.9 2.4 10 2.9 10 3c0.2 0.5 0.3 1 0.4 1.6 0.2 1.1 0.8 2 1.6 2.8 0.4 0.4 0.9 0.6 1.4 0.9 0.5 0.3 1 0.5 1.5 0.8 0.2 0.1 0.6 0.3 0.6 0.3 0.1 0 0.2 0.1 0.3 0.1 0.2 0.1 0.5 0.1 0.7 0 0.2-0.1 0.4-0.2 0.6-0.3 0.1 0 0.2-0.1 0.3-0.1 0.1 0 0.1 0 0.1 0 0.1 0 0.1-0.1 0.2-0.1 0.4-0.4 1-0.5 1.5-0.5 0.5 0 1.1 0 1.4 0.3 0.1 0.1 0.1 0.3 0.2 0.4 0 0.1 0.1 0.1 0.1 0.2 0.2 0.2 0.5 0.3 0.7 0.5 0 0 0 0 0.1 0.1 0.1 0.1 0.1 0.2 0 0.3 -0.1 0.2-0.6 0.3-0.8 0.7 0 0.1-0.1 0.1-0.1 0.2 -0.3 0.3-0.5 0.6-0.6 1 0 0.1 0 0.1 0 0.2 -0.1 0.4 0 0.8 0.4 1.1 0.4 0.3 0.8 0.5 1.2 0.8 0.5 0.3 0.9 0.7 1.3 1.1 0.4 0.4 0.9 0.8 1.3 1.1 0.2 0.2 0.4 0.3 0.7 0.4 0.2 0.2 0.5 0.3 0.7 0.5 0.2 0.1 0.5 0.2 0.7 0.4 0.2 0.2 0.4 0.3 0.7 0.4 0.2 0.1 0.3 0.1 0.5 0.2 0.1 0 0.2 0 0.2 0.1 0.3 0 0.6 0 0.9 0.1 0.1 0 0.4 0.1 0.4 0.3C29.2 18.9 28.7 18.8 28.6 18.8z"/>
</svg>
