<svg xmlns="http://www.w3.org/2000/svg" version="1.1" id="Layer_1" x="0px" y="0px" width="168.657px" height="139.552px" viewBox="0 0 168.657 139.552" enable-background="new 0 0 168.657 139.552" xml:space="preserve">
  <path class="svg-bird" fill="#f08c49" d="M163.857 109.855c-0.321-0.959-1.743-1.527-2.588-1.814 -1.808-0.608-3.835-0.538-5.712-0.814 -0.511-0.073-1.015-0.203-1.508-0.358 -1.084-0.328-2.138-0.804-3.201-1.189 -1.782-0.656-3.068-1.682-4.607-2.729 -1.345-0.914-2.895-1.468-4.244-2.396 -1.539-1.055-2.99-2.228-4.584-3.215 -1.4-0.854-2.914-1.618-4.216-2.607 -2.973-2.252-5.813-4.645-8.59-7.144 -2.673-2.396-5.245-4.944-8.184-7.017 -2.538-1.803-5.448-3.101-7.7-5.276 -2.102-2.024-2.757-4.547-2.311-7.256 0.064-0.39 0.148-0.774 0.258-1.161 0.688-2.518 2.359-4.45 4.008-6.452 0.312-0.372 0.619-0.753 0.92-1.129 1.786-2.296 4.543-3.199 5.318-4.354 0.328-0.489 0.297-1.02-0.305-1.725 -0.098-0.118-0.197-0.232-0.332-0.364 -1.282-1.228-3.024-1.535-4.172-2.924 -0.291-0.343-0.565-0.698-0.835-1.066 -0.491-0.642-0.665-1.943-1.251-2.494 -2.314-2.174-6.182-2.005-9.122-1.934 -3.632 0.082-6.966 0.561-9.812 2.976 -0.342 0.291-0.652 0.747-1.157 0.659 -0.317-0.054-0.571-0.114-0.897-0.096 -0.756 0.048-1.487 0.284-2.186 0.56 -1.396 0.557-2.603 1.527-4.032 1.962 -1.58 0.479-3.188 0.362-4.745-0.062 -0.595-0.166-1.18-0.383-1.757-0.615 0.118 0.036-2.085-0.962-3.574-1.782 -3.172-1.754-6.255-3.615-9.49-5.249 -3.172-1.609-6.25-3.271-8.843-5.746 -5.052-4.833-8.645-11.046-10.222-17.826 -0.778-3.339-1.474-6.707-2.643-9.936 -0.307-0.841-1.201-3.85-2.419-3.716 -1.058 0.122-1.142 2.414-1.188 3.233 0 0.029-0.004 0.05-0.004 0.073 -0.11 1.758-0.114 3.513-0.021 5.272 0.194 3.753 0.774 7.459 1.459 11.152 -1.61-3.76-3.764-7.267-5.208-11.09 -0.699-1.866-1.307-3.768-2.063-5.615 -0.524-1.261-1.189-3.3-2.431-4.067 -1.439-0.891-2.147 1.401-2.354 2.372 -0.422 1.928-0.346 3.894 0.144 5.803 0.51 1.958 1.498 3.739 2.192 5.629 0.638 1.734 1.143 3.528 1.539 5.339 -1.901-1.707-3.786-3.444-5.487-5.343 -1.02-1.136-1.977-2.336-2.822-3.62 -1.824-2.75-3.079-5.892-5.027-8.558 -0.52-0.711-1.494-1.688-1.702-0.209 -0.246 1.807 0.472 3.963 0.986 5.664 1.201 3.998 3.081 7.712 5.075 11.347 -2.493-1.435-4.858-3.068-7.133-4.822 -1.114-0.856-2.218-1.732-3.391-2.518 -0.847-0.575-1.963-1.468-3.02-1.629 -1.289-0.192-0.321 1.755-0.099 2.229 0.589 1.261 1.372 2.416 2.174 3.556 1.612 2.271 3.284 4.517 4.932 6.765 -2.691-1.054-5.304-2.275-7.927-3.484 -0.469-0.213-4.538-2.208-3.565-0.285 0.651 1.305 1.938 2.489 2.942 3.532 1.638 1.705 3.409 3.369 4.58 5.454 -1.361-0.236-2.724-0.163-4.094-0.052 -0.694 0.052-1.578 0.063-2.168 0.498 -1.26 0.952 1.847 4.335 2.422 5.07 0.71 0.914-0.184 0.84-0.957 0.903 -1.128 0.096-1.454 0.648-1.271 1.784 0.355 2.256 2.652 3.934 4.675 4.638 -0.826-0.291-1.998 0.58-1.799 1.46 0.199 0.834 0.761 1.903 1.483 2.397 0.457 0.313 1.005 0.516 1.368 0.966 0.345 0.41-0.263 1.096-0.215 1.594 0.125 1.282 1.392 2.465 2.278 3.292 -0.788 0.711-0.98 1.644-0.555 2.614 0.236 0.531 0.867 1.508 1.577 1.28 -0.577 0.74-0.682 1.638-0.38 2.514 0.232 0.675 0.776 1.029 1.102 1.633 0.323 0.604-0.261 0.782-0.3 1.324 -0.04 0.483 0.753 1.238 1.055 1.541 0.275 0.276 0.582 0.527 0.92 0.722 0.411 0.24 0.737 0.104 0.614 0.642 -0.139 0.589-0.348 1.202-0.258 1.811 0.199 1.311 1.766 2.228 2.965 1.648 -0.426 1.029 0.302 2.729 0.916 3.572 0.708 0.97 1.767 1.01 2.677 1.647 0.426 0.293 0.604 0.783 0.767 1.295 0.169 0.531 0.312 1.092 0.693 1.482 1.024 1.103 2.483 1.059 3.829 0.693 -0.444 2.816 4.27 1.536 5.723 1.153 1.445-0.382 2.8-0.962 4.094-1.706 0.278-0.158 0.551-0.31 0.826-0.457 0.832-0.455 1.685-0.871 2.625-1.051 -0.694 0.125-1.48 3.981-1.628 4.615 -0.372 1.615-0.559 3.252-0.698 4.896 -0.474 5.754-1.459 8.915-4.73 13.684 -5.215 7.621-7.631 9.085-13.746 15.952 -4.111 4.614-6.992 6.335-9.288 12.308 -0.188 0.487 1.969 0.059 2.143 0.01 3.315-0.788 5.006-1.555 8.283-2.518 0.094-0.024 1.261-0.306 1.261-0.416 0 1.397 0 1.397 0.203 2.621 0.273 1.622 0.005 1.748 0.495 3.309 0.316 1.005 0.619 2.029 1.054 2.989 0.519 1.156 1.133 1.493 2.03 0.471 1.479-1.717 2.002-2.938 2.647-5.047 1.989-6.565 2.859-7.305 6.99-12.853 3.059-4.103 4.375-5.755 8.587-9.239 3.477-2.88 6.922-6.102 11.701-6.238 1.307-0.037 2.591 0.052 3.861-0.28 0.384 0.836 4.703 1.855 4.823 1.058 -0.177 1.21-0.99 3.176 0.287 4.022 1.165 0.762 2.846 0.483 4.107 0.148 -0.09 0.586-0.109 1.19-0.044 1.773 0.138 1.247 0.832 2.355 2.225 1.909 0.551-0.18 1.124-0.513 1.723-0.406 0.684 0.127 1.139 0.725 1.886 0.701 0.203-0.004 0.425-0.004 0.659 0.004l3.226 0.919c0.133 0.095 0.256 0.198 0.365 0.315 0.441 0.472 0.911 0.975 1.514 1.24 0.308 0.14 0.647 0.199 0.992 0.194 0.275 0.169 0.557 0.348 0.84 0.502 1.346 0.724 2.549 0.489 3.584-0.185l0.68 0.077c-0.16 0.093-0.232 0.214-0.053 0.318 0.232 0.133 0.729 0.456 1.01 0.397 0.766-0.151 1.518-0.324 2.277-0.465l0.042 0.262c-0.354 1.682 2.158 1.663 3.276 1.895 0.479 0.093 1.322 0.483 1.716 0.033l1.042 0.026c1.28 1.752 3.739 0.753 5.6 0.941 1.096 0.11 1.645 0.496 2.583 1 0.864 0.47 1.805 0.349 2.721 0.102 1.024-0.263 1.68 0.122 2.671 0.213 0.848 0.067 1.663-0.136 2.49 0.144 0.93 0.311 1.693 0.875 2.728 0.774 0.298-0.024 0.577-0.069 0.86-0.116 0.608-0.107 1.207-0.218 1.86-0.175 0.02 0 0.04 0.005 0.061 0.005 1.643 0.15 3.311 0.571 4.967 0.411 0.763-0.073 1.501-0.305 1.965-0.942 0.56-0.753 1.213-0.613 2.05-0.352 2.215 0.671 4.631 1.7 7.01 1.236 -0.117-0.473-0.033-2.102-0.52-2.33 1.875 0.903 3.641 1.98 5.463 2.973 1.242 0.681 3.154 1.827 4.646 1.455 1.506-0.373-0.985-2.824-1.369-3.277 -0.287-0.348-0.557-0.694-0.808-1.062 -0.866-1.223-1.589-2.57-2.317-3.86 1.042 0.436 1.973 1.077 3.068 1.361 1.07 0.271 2.191 0.344 3.281 0.505 1.059 0.148 2.139 0.216 3.207 0.095 0.529-0.062 1.049-0.175 1.553-0.353 0.565-0.188 0.372-0.507 0.199-1.011 1.33 0.967 3.928 0.343 5.301-0.022 0.528-0.14 1.445-0.121 1.711-0.701 0.074-0.154-0.551-0.972-0.63-1.145 -0.796-1.605 1.322-1.162 2.183-0.959C160.63 110.681 164.292 111.145 163.857 109.855"/>
</svg>
