<?xml version="1.0" encoding="utf-8"?>
<!-- Generator: Adobe Illustrator 17.1.0, SVG Export Plug-In . SVG Version: 6.00 Build 0)  -->
<!DOCTYPE svg PUBLIC "-//W3C//DTD SVG 1.1//EN" "http://www.w3.org/Graphics/SVG/1.1/DTD/svg11.dtd">
<svg version="1.1" id="Layer_1" xmlns="http://www.w3.org/2000/svg" xmlns:xlink="http://www.w3.org/1999/xlink" x="0px" y="0px"
	 viewBox="0 0 613.652 204.922" enable-background="new 0 0 613.652 204.922" xml:space="preserve">
<path fill="#CEE3EA" d="M118.513,28.829c-0.478-0.105-1.521,0.809-1.731,1.449c-0.35,1.053,0.554,1.397,1.516,1.593
	c2.971,0.598,5.432,3.655,5.691,7.055c0.476,6.295-1.096,12.016-4.865,17.111c-4.04,5.457-9.158,9.741-14.629,13.669
	c-6.608,4.746-13.403,9.256-19.037,15.245c-3.957,4.205-7.409,8.723-9.354,14.22c-0.494,1.403-0.795,2.895-0.992,4.373
	c-0.516,3.906-1.875,5.526-5.813,5.79c-5.064,0.338-10.18,0.715-15.229,0.405c-10.884-0.669-21.736-1.822-32.611-2.659
	c-4.49-0.346-9.001-0.392-13.506-0.564c-0.397-0.014-0.802,0.068-1.203,0.086c-1.023,0.042-2.024,0.375-1.874,1.519
	c0.099,0.761,0.714,1.716,1.37,2.089c1.905,1.07,4.03,1.755,5.93,2.837c4.217,2.393,8.406,4.843,12.498,7.441
	c8.254,5.252,17.163,6.984,26.927,6.565c9.952-0.431,19.959,0.108,29.927,0.533c2.374,0.099,4.757,1.28,7,2.271
	c0.866,0.379,1.564,1.516,1.991,2.465c2.378,5.282,2.012,10.739,0.461,16.105c-2.032,7.041-4.514,13.957-6.46,21.023
	c-1.016,3.691-1.426,7.571-1.864,11.396c-0.286,2.531,0.807,4.743,2.573,6.565c0.312,0.321,1.033,0.701,1.248,0.561
	c0.388-0.249,0.75-0.872,0.746-1.339c-0.072-8.508,2.06-16.433,6.056-23.923c1.766-3.309,3.297-6.744,4.973-10.103
	c0.282-0.567,0.757-1.034,1.143-1.551c0.165,0.035,0.329,0.069,0.495,0.106c0.159,0.807,0.385,1.607,0.466,2.423
	c0.877,8.624,1.645,17.252,2.615,25.862c0.604,5.335,1.197,10.718,3.84,15.549c1.11,2.023,2.417,3.938,3.637,5.904
	c0.237-0.114,0.472-0.226,0.711-0.341c-0.124-0.528-0.092-1.191-0.402-1.574c-3.856-4.772-5.035-10.489-5.512-16.335
	c-0.707-8.691-1.045-17.415-1.617-26.114c-0.225-3.399-0.67-6.783-1.007-10.175c-0.022-0.218,0.042-0.446,0.45-0.926
	c0.574,0.816,1.277,1.576,1.704,2.466c3.944,8.21,9.105,15.683,14.264,23.131c4.591,6.621,9.901,12.684,16.397,17.513
	c2.605,1.941,5.599,3.462,8.589,4.77c7.156,3.122,14.786,4.358,22.502,5.278c3.933,0.469,7.785,1.576,11.682,2.368
	c0.588,0.116,1.201,0.083,1.807,0.118c0.049-0.205,0.102-0.414,0.152-0.624c-0.619-0.302-1.211-0.703-1.865-0.891
	c-7.307-2.093-14.16-5.243-20.888-8.732c-7.086-3.671-12.443-9.301-17.583-15.2c-0.292-0.333-0.464-0.766-0.508-1.452
	c0.751,0.33,1.585,0.539,2.245,1c5.286,3.738,11.211,5.852,17.489,7.213c1.375,0.297,2.824,1.065,3.852,2.03
	c5.638,5.266,12.098,9.086,19.49,11.213c6.071,1.744,12.238,1.168,18.387,0.232c7.527-1.148,15.04-2.4,22.597-3.32
	c3.709-0.453,7.5-0.157,11.245-0.389c3.165-0.198,6.312-0.667,9.469-1.016c5.549-0.612,10.916,0.441,16.271,1.689
	c1.907,0.443,3.829,0.854,5.765,1.084c0.561,0.064,1.654-0.516,1.705-0.906c0.088-0.623-0.305-1.61-0.826-1.975
	c-6.786-4.771-14.301-8.011-22.309-9.993c-7.129-1.766-14.191-3.663-20.973-6.505c-7.398-3.1-13.836-7.741-19.517-13.257
	c-4.41-4.278-8.241-9.184-12.132-13.97c-3.582-4.405-7.318-8.618-11.806-12.132c-0.283-0.224-0.494-0.549-0.575-1.213
	c0.726,0.163,1.479,0.257,2.175,0.505c3.575,1.275,6.412,3.59,8.948,6.352c5.111,5.578,10.203,11.178,15.413,16.658
	c4.417,4.657,9.096,8.995,14.664,12.346c7.555,4.542,15.745,6.905,24.445,7.352c13.77,0.703,27.555,1.222,41.186,3.495
	c10.863,1.814,21.447,4.654,31.168,9.985c2.379,1.302,4.307,3.41,6.487,5.095c0.527,0.409,1.383,0.989,1.79,0.808
	c0.506-0.225,0.987-1.156,0.974-1.777c-0.069-3.211-1.197-6.062-3.287-8.536c-3.289-3.9-7.6-6.348-12.115-8.463
	c-2.346-1.102-4.846-1.87-7.24-2.875c-0.899-0.376-1.698-0.986-2.565-1.501c4.759-1.466,9.256-2.814,13.732-4.237
	c2.3-0.729,4.588-1.539,6.846-2.394c5.351-2.011,10.893-1.944,16.41-1.329c14.273,1.602,27.855-0.806,40.971-6.477
	c3.54-1.53,7.19-2.812,10.84-4.064c1.109-0.379,2.436-0.56,3.577-0.353c8.053,1.47,15.128-0.875,21.489-5.593
	c4.031-2.986,7.829-6.293,11.654-9.551c4.072-3.464,8.417-6.368,13.906-6.839c3.896-0.337,7.828-0.291,11.722-0.622
	c9.197-0.786,18.398-1.527,27.557-2.62c6.089-0.723,11.252-3.926,15.824-7.778c4.536-3.826,8.682-8.12,12.919-12.285
	c3.671-3.609,7.781-6.047,12.986-7.062c4.54-0.881,9.053-2.406,13.274-4.32c7.035-3.193,11.525-9.172,14.991-15.816
	c1.922-3.69,4.259-6.66,7.781-8.982c6.667-4.398,13.007-9.254,17.46-16.101c0.786-1.211,1.704-2.361,2.311-3.656
	c1.92-4.096,4.241-7.925,7.092-11.447c5.013-6.189,9.894-12.48,16.449-17.214c2.405-1.735,4.938-2.966,7.84-3.411
	c1.415-0.22,2.511-0.852,2.601-2.309c0.095-1.557-1.186-2.201-2.466-2.459c-4.817-0.97-9.765-1.169-14.447,0.089
	c-6.276,1.682-12.399,3.981-18.501,6.252c-6.209,2.314-12.261,5.042-18.476,7.33c-2.283,0.842-4.823,1.035-7.271,1.368
	c-5.368,0.739-10.78,1.199-16.115,2.108c-4.1,0.698-7.929,0.735-11.819-1.068c-4.018-1.866-8.331-3.118-11.754-6.121
	c-0.299-0.263-0.672-0.45-1.033-0.632c-3.998-2.022-7.998-4.041-12.002-6.049c-2.899-1.453-5.991-2.038-9.22-2.034
	c-0.686,0.001-1.418,0.005-2.053-0.219c-6.621-2.324-13.222-1.327-19.837-0.006c-1.048,0.209-2.23,0.346-3.229,0.075
	c-8.97-2.444-16.5,0.351-23.15,6.278c-7.54,6.725-15.175,13.359-22.462,20.35c-7.169,6.877-15.378,11.91-24.54,15.553
	c-3.057,1.218-6.072,2.526-9.134,3.719c-0.649,0.255-1.427,0.169-2.146,0.243c-0.036-0.66-0.174-1.335-0.082-1.981
	c0.643-4.462,3.028-8.194,5.177-12.015c5.556-9.884,13.118-18.077,22.257-24.626c6.539-4.686,14.002-7.552,22.232-7.9
	c0.478-0.02,0.937-0.476,1.403-0.732c-0.302-0.445-0.522-1.175-0.922-1.294c-2.306-0.698-4.631-1.61-6.995-1.79
	c-11.282-0.86-21.802,1.78-31.944,6.763c-11.989,5.89-22.161,14.014-30.731,24.091c-5.504,6.479-11.806,11.994-18.296,17.371
	c-0.398,0.328-0.792,0.682-1.132,1.074c-5.636,6.551-13.218,8.275-21.353,8.49c-1.155,0.028-2.375-0.434-3.47-0.896
	c-0.532-0.226-1.111-0.938-1.203-1.503c-0.94-5.753-1.961-11.491-1.448-17.375c1.276-14.675,8.537-25.52,21.264-32.631
	c8.808-4.918,18.327-7.823,28.434-8.674c1.078-0.088,2.197-0.3,3.184-0.716c1.113-0.468,1.139-1.586,0.033-2.061
	c-1.197-0.515-2.518-0.874-3.817-1.015c-3.328-0.353-6.713-0.321-10.006-0.874c-3.795-0.645-7.504-1.812-11.271-2.644
	c-10.591-2.329-20.898-1.807-30.635,3.419c-6.253,3.355-12.395,6.915-18.686,10.203c-1.495,0.783-3.369,0.884-5.085,1.206
	c-1.73,0.328-3.655,0.16-5.191,0.869c-6.646,3.071-13.16,6.434-19.777,9.565c-1.304,0.622-2.866,1.004-4.305,0.982
	c-4.902-0.07-9.663,0.616-14.375,1.896c-1.099,0.299-2.302,0.183-3.423,0.42c-3.024,0.64-6.038,1.354-9.043,2.074
	c-0.67,0.162-1.28,0.581-1.949,0.692c-3.753,0.625-7.501,1.491-11.283,1.692c-3.679,0.192-6.941,1.302-9.903,3.245
	c-7.227,4.737-14.499,9.438-20.9,15.308c-7.121,6.527-15.23,11.725-22.986,17.414c-7.71,5.659-15.503,11.308-21.081,19.296
	c-1.503,2.153-2.633,4.568-3.921,6.872c-0.469,0.842-0.891,1.707-1.625,3.133c-0.724-1.196-1.412-1.911-1.614-2.741
	c-2.505-10.293-2.325-20.467,2.417-30.099c3.696-7.51,9.765-12.638,17.731-15.402c8.992-3.12,17.984-6.253,26.997-9.319
	c5.567-1.893,11.008-3.981,14.951-8.634c0.885-1.043,1.729-2.219,2.193-3.48c0.283-0.765,0.049-1.96-0.396-2.694
	c-0.542-0.905-1.713-1.036-2.285,0.001c-2.082,3.78-5.625,5.703-9.251,7.515c-3.98,1.992-8.115,3.526-12.499,4.517
	c-12.077,2.732-23.877,6.412-35.16,11.543c-6.205,2.816-12.29,5.896-17.68,10.154c-0.45,0.358-0.953,0.658-1.446,0.961
	c-0.134,0.084-0.318,0.081-0.89,0.208c0.566-2.066,0.961-3.968,1.611-5.78c1.915-5.356,2.577-10.871,2.408-16.525
	c-0.124-4.17-1.72-7.789-4.445-10.829C121.281,29.563,119.787,29.097,118.513,28.829z M137.529,110.246
	c0.73,4.171-0.065,5.093-4.25,5.755c-0.4,0.062-0.811,0.174-1.204,0.13c-5.666-0.618-11.355-1.083-16.978-1.974
	c-2.814-0.442-4.671-2.492-5.188-5.409c-0.349-1.98-0.706-3.998-0.707-5.998c-0.002-5.383,1.505-10.484,3.237-15.525
	c5.771-16.796,17.103-28.18,33.622-34.493c1.153-0.437,2.413-0.603,4.09-1.007c-0.372,0.711-0.419,0.893-0.531,0.987
	c-0.662,0.557-1.338,1.099-2.021,1.635c-3.861,3.035-7.126,6.546-9.241,11.061c-4.637,9.916-5.723,20.24-3.647,30.928
	C135.615,100.979,136.722,105.586,137.529,110.246z M111.72,79.069c0.438-0.613,1.199-0.996,1.808-1.484
	c0.161,0.131,0.32,0.26,0.481,0.392c-0.515,1.266-0.913,2.591-1.558,3.782c-5.189,9.554-7.1,19.678-5.504,30.455
	c0.064,0.43-0.046,1.098-0.332,1.327c-2.275,1.81-5.496,0.624-6.082-2.193c-0.096-0.447-0.13-0.916-0.149-1.374
	C99.848,98.092,105.099,88.321,111.72,79.069z M99.987,96.382c-1.524,4.034-2.434,8.175-2.208,12.52
	c0.034,0.627-0.032,1.275-0.161,1.891c-0.449,2.176-2.824,3.425-5.15,2.744c-1.785-0.521-2.455-2.17-1.674-4.384
	c0.442-1.249,0.943-2.494,1.595-3.641c2.193-3.85,4.354-7.733,8.029-10.718C100.275,95.325,100.179,95.871,99.987,96.382z
	 M221.606,40.109c-0.518,0.437-0.755,0.685-1.034,0.867c-5.08,3.311-9.366,7.479-13.189,12.158
	c-7.23,8.849-14.521,17.651-21.666,26.566c-7.967,9.941-16.758,19.087-26.165,27.653c-2.603,2.367-5.378,4.544-8.105,6.775
	c-1.345,1.098-2.66,0.911-3.845-0.322c-0.48-0.498-0.972-0.994-1.373-1.551c-4.077-5.627-3.939-11.465-0.875-17.461
	c3.763-7.352,9.657-12.653,16.607-16.76c12.55-7.419,24.689-15.359,35.394-25.368c4.556-4.253,9.424-8.182,15.106-10.931
	C215.236,40.394,218.083,39.408,221.606,40.109z M233.291,37.093c0.062,0.135,0.125,0.267,0.189,0.398
	c-0.755,0.603-1.535,1.174-2.266,1.806c-3.122,2.734-6.347,5.364-9.314,8.257c-8.763,8.531-15.918,18.433-23.491,27.968
	c-8.192,10.31-16.184,20.769-24.38,31.071c-2.835,3.565-6.392,6.353-10.817,7.798c-2.279,0.751-4.602,1.347-7.527,0.992
	c0.98-1.407,1.63-2.62,2.537-3.587c1.617-1.724,3.324-3.382,5.116-4.919c11.121-9.549,21.151-20.1,29.843-31.942
	c5.05-6.877,10.233-13.685,15.676-20.26c5.964-7.201,13.306-12.769,21.861-16.647C231.549,37.653,232.433,37.398,233.291,37.093z
	 M190.957,105.669c-2.242,2.366-4.99,4.271-7.574,6.303c-0.854,0.673-1.862,1.406-3.598,0.279c0.698-0.512,1.307-0.857,1.796-1.325
	c7.729-7.375,15.018-15.158,21.112-23.956c3.446-4.976,6.534-10.196,9.771-15.309c6.194-9.77,12.896-19.118,21.958-26.513
	c4.988-4.073,10.231-7.708,16.491-9.581c0.61-0.182,1.275-0.171,1.912-0.251c0.159,0.214,0.32,0.428,0.477,0.642
	c-0.533,0.392-1.078,0.772-1.601,1.18c-4.772,3.727-9.397,7.66-14.345,11.131c-9.135,6.401-16.197,14.637-21.44,24.322
	C209.246,84.911,200.503,95.581,190.957,105.669z M197.558,103.173c0.602-0.884,1.096-1.879,1.831-2.643
	c7.147-7.426,12.648-15.982,17.477-25.037c2.688-5.042,5.489-10.106,9.878-13.908c6.232-5.396,12.639-10.596,19.001-15.841
	c0.449-0.37,1.148-0.438,2.135-0.789c-0.376,0.773-0.506,1.084-0.67,1.378c-4.86,8.618-9.725,17.235-14.587,25.856
	c-3.246,5.745-6.713,11.423-11.798,15.677c-5.788,4.842-11.968,9.229-18.068,13.688c-1.384,1.012-3.15,1.502-4.741,2.232
	C197.863,103.583,197.71,103.375,197.558,103.173z M171.944,114.152c-0.15-0.179-0.303-0.36-0.45-0.546
	c0.529-0.71,1.002-1.474,1.599-2.125c3.048-3.309,6.131-6.581,9.189-9.878c7.466-8.048,14.186-16.688,20.371-25.741
	c7.117-10.418,14.794-20.365,23.895-29.155c3.495-3.374,6.999-6.729,11.418-8.9c0.917-0.452,1.94-0.687,2.913-1.019
	c0.067,0.151,0.132,0.302,0.201,0.451c-0.49,0.364-0.967,0.756-1.477,1.094c-6.309,4.182-11.608,9.463-16.673,15.042
	c-6.499,7.159-11.347,15.442-16.359,23.602c-8.151,13.267-18.035,24.973-30.352,34.553
	C174.909,112.55,173.375,113.287,171.944,114.152z M279.112,24.449c1.014-0.1,2.06,0.135,3.093,0.228
	c-0.357,0.97-0.565,2.032-1.094,2.893c-2.922,4.764-6.143,9.357-8.837,14.242c-2.399,4.35-5.025,8.441-8.781,11.704
	c-5.348,4.647-9.953,9.951-14.271,15.541c-4.698,6.088-7.929,12.796-9.538,20.351c-1.373,6.444-3.244,12.775-6.492,18.573
	c-2.393,4.271-5.372,8.075-10.513,9.116c-3.723,0.755-7.53,1.096-11.432,1.638c-4.924-0.315-9.945-0.523-14.936-1.024
	c-1.319-0.135-2.618-1.068-3.798-1.83c-0.985-0.642-1.075-1.711-0.137-2.49c1.231-1.023,2.549-1.963,3.91-2.796
	c3.148-1.932,6.635-3.423,9.46-5.728c5.852-4.77,11.47-9.843,16.998-14.992c5.819-5.424,9.735-12.247,13.388-19.223
	c3.102-5.935,6.114-11.925,9.414-17.747c3.202-5.651,7.188-10.727,12.075-15.083c5.7-5.083,12.367-8.679,18.876-12.52
	C277.273,24.843,278.219,24.531,279.112,24.449z M232.571,113.286c0.745-1.353,1.503-2.701,2.245-4.055
	c3.279-5.988,4.886-12.557,6.539-19.099c1.048-4.142,1.952-8.331,4.315-11.991c4.758-7.366,10.417-13.972,16.998-19.771
	c0.796-0.7,1.882-1.067,3.143-1.761c-0.039,0.988-0.015,1.44-0.084,1.881c-1.47,9.694-4.288,18.991-8.076,28.031
	c-3.567,8.532-9.272,15.388-16.293,21.211c-2.635,2.185-5.524,4.06-8.298,6.077C232.897,113.637,232.734,113.462,232.571,113.286z
	 M301.912,26.858c-8.508,6.726-14.441,15.197-17.706,25.497c-1.374,4.342-2.413,8.796-3.572,13.207
	c-3.079,11.707-6.989,23.118-12.735,33.804c-5.355,9.966-13.973,15.752-24.816,18.377c-1.168,0.282-2.542,0.119-3.726-0.196
	c-1.034-0.274-1.62-1.155-0.703-2.263c1.396-1.688,2.718-3.44,4.212-5.033c2.248-2.399,4.789-4.539,6.9-7.046
	c9.484-11.257,15.153-24.373,18.069-38.671c1.759-8.639,3.98-17.019,7.95-24.981c4.52-9.082,10.915-16.034,20.072-20.506
	c4.305-2.099,8.54-4.374,12.618-6.881c10.606-6.524,22.025-8.225,34.142-6.205c1.993,0.335,3.904,0.947,5.61,2.875
	c-0.809,0.24-1.281,0.42-1.764,0.518c-9.844,2.077-19.515,4.644-28.858,8.491C311.928,20.18,306.719,23.06,301.912,26.858z
	 M321.426,23.339c-11.665,7.508-20.013,17.52-23.374,31.222c-1.346,5.491-2.549,11.022-3.753,16.549
	c-1.869,8.625-3.48,17.31-7.466,25.334c-3.641,7.32-8.408,13.658-15.112,18.417c-2.723,1.934-5.708,3.289-9.123,3.368
	c-0.793,0.021-1.597-0.242-2.395-0.376c-0.113-0.235-0.229-0.473-0.348-0.708c0.478-0.312,1.038-0.548,1.419-0.955
	c3.56-3.796,7.15-7.64,9.133-12.521c2.429-5.985,4.719-12.045,6.694-18.194c3.038-9.45,5.562-19.063,8.66-28.49
	c2.703-8.213,6.404-15.963,12.538-22.314c6.268-6.484,13.567-11.273,22.271-13.763c1.266-0.363,2.703-0.134,4.252-0.187
	c-0.244,0.425-0.275,0.557-0.357,0.612C323.455,22.008,322.447,22.678,321.426,23.339z M315.376,86.046
	c-0.118,3.753-1.126,7.051-3.482,9.914c-1.351,1.651-2.719,3.324-4.295,4.746c-5.577,5.026-11.181,10.031-16.934,14.851
	c-1.49,1.252-3.484,2.139-5.389,2.58c-2.02,0.469-4.27,0.555-6.302,0.174c-2.267-0.42-2.424-1.721-0.67-3.169
	c3.786-3.111,7.006-6.626,9.069-11.188c4.994-11.037,8.359-22.633,11.455-34.286c2.659-10.009,5.05-20.087,10.39-29.09
	c2.082-3.504,4.542-6.806,7.081-9.996c1.486-1.869,3.746-2.775,6.665-3.309c-0.637,0.898-0.943,1.367-1.286,1.811
	c-3.968,5.163-6.855,10.834-8.025,17.279c-1.264,6.967-0.512,13.947,0.182,20.896C314.465,73.511,315.576,79.705,315.376,86.046z
	 M319.032,80.275c-0.427-1.488-0.671-3.04-0.871-4.58c-0.134-1.032,0.427-1.521,1.494-1.682c3.861-0.581,7.704-1.256,11.558-1.886
	c0.586-0.098,1.185-0.137,1.778-0.203c0.062,0.128,0.119,0.255,0.179,0.382c-0.491,0.432-0.946,0.915-1.477,1.291
	c-3.103,2.206-6.216,4.402-9.346,6.57c-0.561,0.393-1.208,0.827-1.846,0.885C320.018,81.094,319.144,80.664,319.032,80.275z
	 M351.195,59.147c-1.046,8.411-25.388,33.316-32.688,33.937c-0.038-0.157-0.115-0.32-0.101-0.482
	c0.025-0.398,0.065-0.804,0.147-1.199c0.737-3.622,2.85-6.361,5.571-8.725c7.614-6.616,15.227-13.24,22.841-19.864
	C348.255,61.695,349.551,60.577,351.195,59.147z M403.146,21.484c-4.182,3.358-8.693,6.376-12.52,10.098
	c-10.832,10.533-20.328,22.249-29.189,34.472c-5.251,7.246-10.328,14.638-16.751,20.93c-3.295,3.229-6.786,6.262-10.277,9.28
	c-6.633,5.737-13.314,11.423-20.004,17.088c-4.122,3.481-9.024,4.485-14.267,4.168c-0.841-0.056-1.701-0.306-2.483-0.635
	c-1.105-0.466-1.456-1.372-0.724-2.382c1.082-1.484,2.068-3.138,3.458-4.28c4.228-3.476,8.396-7.127,13.025-10.013
	c11.778-7.35,22.246-16.126,30.963-26.935c5.835-7.238,11.568-14.563,17.26-21.918c10.111-13.052,22.132-23.682,37.603-29.995
	c1.73-0.705,3.488-1.332,5.236-1.995c0.103,0.172,0.208,0.343,0.315,0.518C404.244,20.422,403.74,21.006,403.146,21.484z
	 M362.757,79.171c-2.4,1.88-4.74,3.944-6.678,6.279c-5.681,6.838-11.288,13.748-16.642,20.844c-3.057,4.051-6.382,7.523-11.086,9.64
	c-2.723,1.223-5.489,1.19-8.312,1.038c-0.418-0.026-1.058-0.441-1.156-0.796c-0.094-0.331,0.304-0.935,0.647-1.229
	c2.489-2.148,4.997-4.276,7.542-6.355c10.498-8.576,20.294-17.814,28.138-28.981c6.335-9.024,12.759-17.996,19.235-26.924
	c8.28-11.404,17.9-21.46,29.897-29.046c1.43-0.909,3.005-1.59,4.505-2.375c0.124,0.206,0.246,0.412,0.364,0.615
	c-0.629,0.473-1.245,0.956-1.884,1.411c-6.161,4.373-11.602,9.493-16.296,15.428c-5.124,6.475-8.962,13.724-12.75,20.993
	C374.361,67.227,369.495,73.902,362.757,79.171z M441.733,28.668c0.14,0.229,0.288,0.454,0.427,0.684
	c-0.706,0.804-1.345,1.69-2.136,2.399c-6.275,5.631-12.392,11.46-18.925,16.776c-8.228,6.7-16.667,13.17-25.267,19.388
	c-10.495,7.588-20.186,15.902-27.928,26.401c-3.76,5.102-7.907,9.932-12.006,14.772c-3.879,4.581-9.156,5.77-14.862,5.528
	c-2.441-0.102-2.833-0.851-1.55-2.864c2.507-3.94,4.99-7.91,7.734-11.689c9.424-12.973,21.631-22.531,35.988-29.615
	c15.507-7.645,29.728-17.231,42.246-29.273c3.905-3.751,8.196-7.113,12.405-10.533C438.959,29.748,440.431,29.313,441.733,28.668z
	 M465.014,22.689c-1.226,1.108-2.385,2.298-3.685,3.312c-7.185,5.611-14.61,10.937-21.547,16.839
	c-7.68,6.534-14.759,13.778-22.408,20.361c-9.372,8.065-17.296,17.255-23.673,27.846c-2.288,3.796-4.931,7.399-7.612,10.936
	c-2.405,3.172-5.388,5.912-9.332,6.87c-5.153,1.25-10.412,2.036-15.636,2.988c-1.336,0.244-1.805-0.553-1.268-1.627
	c0.715-1.428,1.559-2.835,2.579-4.055c4.011-4.784,8.133-9.459,12.162-14.222c7.598-8.986,15.933-17.205,25.267-24.379
	c4.99-3.833,10.25-7.328,15.088-11.336c7.2-5.969,14.087-12.308,21.19-18.393c7.38-6.326,15.665-11.219,24.602-14.997
	c1.234-0.524,2.675-0.551,4.02-0.81C464.847,22.245,464.93,22.465,465.014,22.689z M451.507,55.912
	c-6.426,7.188-12.863,14.364-19.257,21.582c-7.594,8.572-17.093,14.899-25.922,22.017c-2.735,2.203-5.249,4.712-8.849,5.57
	c-1.733,0.413-3.401,1.114-5.143,1.512c-1.747,0.396-3.549,0.584-5.327,0.859c-0.079-0.212-0.158-0.423-0.236-0.636
	c0.403-0.618,0.817-1.234,1.202-1.865c2.092-3.455,4.184-6.905,6.253-10.368c1.422-2.378,2.791-4.783,4.217-7.161
	c6.14-10.25,14.723-18.299,23.648-26.003c9.527-8.229,19.147-16.346,28.792-24.437c6.059-5.08,12.098-10.254,19.63-13.133
	c6.816-2.614,13.832-3.058,20.934-1.42c1.373,0.318,2.644,1.093,4.236,1.776c-0.713,0.623-0.974,0.941-1.315,1.131
	c-1.107,0.612-2.196,1.294-3.375,1.745C475.235,33.14,462.615,43.487,451.507,55.912z M407.294,103.009
	c0.526-0.73,0.969-1.541,1.594-2.172c1.258-1.268,2.536-2.543,3.949-3.628c13.183-10.154,25.024-21.66,35.458-34.638
	c5.504-6.85,11.41-13.329,18.302-18.858c5.72-4.581,11.859-8.42,18.738-10.991c1.418-0.527,2.985-0.686,4.48-1.015
	c0.106,0.238,0.214,0.476,0.322,0.71c-0.486,0.406-1.002,0.779-1.454,1.219c-5.563,5.377-11.054,10.837-16.69,16.131
	c-7.476,7.022-15.022,13.969-22.625,20.857c-3.802,3.445-7.875,6.591-11.654,10.062c-5.681,5.226-10.746,11.078-16.86,15.887
	c-3.57,2.804-7.41,4.837-11.574,6.417c-0.524,0.199-1.097,0.266-1.644,0.395C407.52,103.26,407.41,103.135,407.294,103.009z
	 M503.957,30.848c-5.385,1.742-9.013,5.628-12.235,10.01c-2.631,3.576-5.199,7.201-7.841,10.776
	c-4.76,6.439-10.138,12.173-16.798,16.817c-4.018,2.798-7.458,6.526-10.812,10.161c-6.262,6.788-13.383,12.191-22.28,14.982
	c-1.551,0.488-3.218,0.619-4.832,0.911c-0.121-0.159-0.241-0.317-0.36-0.478c0.326-0.677,0.518-1.485,1.003-2.015
	c1.796-1.942,3.609-3.892,5.565-5.668c8.504-7.722,17.148-15.297,25.586-23.089c10.814-9.979,21.468-20.139,32.23-30.172
	c2.059-1.914,4.547-3.18,7.357-3.64c1.44-0.232,2.903-0.21,4.325,0.857C504.432,30.566,504.212,30.767,503.957,30.848z
	 M525.357,38.519c-1.153,0.555-1.95,1.005-2.791,1.337c-4.181,1.66-8.395,3.237-12.558,4.946
	c-6.175,2.524-11.175,6.624-15.415,11.721c-4.924,5.913-7.774,12.925-10.458,20c-0.723,1.896-1.83,3.16-3.573,3.956
	c-1.206,0.55-2.445,1.037-3.706,1.441c-3.183,1.02-6.379,2.021-9.59,2.952c-3.379,0.98-6.771,1.909-10.185,2.778
	c-1.466,0.376-1.923-0.125-1.372-1.497c0.536-1.323,1.183-2.647,2.011-3.802c4.041-5.63,9.116-10.261,14.481-14.565
	c4.088-3.277,7.547-7.05,10.604-11.295c3.978-5.524,8.13-10.931,12.307-16.304c3.179-4.081,7.543-6.071,12.639-6.188
	c2.865-0.067,5.768,0.225,8.606,0.652C519.505,35.128,522.418,36.368,525.357,38.519z M489.069,74.96
	c1.252-3.524,2.514-7.063,4.124-10.43c2.114-4.428,4.452-8.749,8.387-11.943c5.899-4.786,12.687-7.812,19.913-9.771
	c10.125-2.75,20.344-5.154,30.536-7.681c0.642-0.16,1.353-0.064,2.033-0.085c0.062,0.147,0.122,0.301,0.185,0.449
	c-0.822,0.46-1.602,1.056-2.477,1.354c-4.638,1.57-9.266,3.177-13.96,4.561c-7.471,2.199-14.937,4.366-21.772,8.25
	c-4.724,2.684-9.338,5.505-12.943,9.689c-3.204,3.718-5.467,7.933-6.931,12.621c-0.815,2.611-2.671,4.291-5.409,4.812
	C489.059,77.109,488.488,76.582,489.069,74.96z M576.926,45.223c-10.892,12.379-24.863,18.695-41.052,20.211
	c-10.026,0.938-19.992,1.93-29.533,5.432c-2.691,0.991-3.683,0.151-3.349-2.775c0.519-4.521,2.344-8.428,6-11.304
	c1.492-1.17,3.035-2.291,4.634-3.315c7.373-4.718,15.558-7.533,23.925-9.781c10.281-2.766,20.27-6.183,29.637-11.326
	c8.88-4.881,18.149-8.848,28.113-10.948c1.489-0.315,3.083-0.142,4.624-0.192c0.027,0.194,0.054,0.391,0.081,0.586
	c-0.404,0.312-0.825,0.605-1.211,0.936c-3.195,2.724-6.636,5.215-9.511,8.242C584.959,35.538,581.08,40.505,576.926,45.223z
	 M511.586,75.95c1.086-0.824,1.725-1.454,2.486-1.866c5-2.735,10.466-3.887,16.054-4.539c4.181-0.488,8.425-0.592,12.549-1.363
	c10.052-1.886,18.66-6.854,26.589-13.114c1.974-1.561,3.917-3.161,5.875-4.742c0.089,0.126,0.179,0.249,0.271,0.374
	c-6.568,10.21-15.527,17.489-26.947,21.692C536.682,76.732,524.599,78.185,511.586,75.95z M508.589,99.127
	c-9.741-0.844-19.255-2.986-28.687-5.464c-1.212-0.32-2.308-1.089-3.453-1.65c1.055-0.978,1.954-2.318,3.201-2.877
	c5.21-2.33,10.47-4.571,15.817-6.565c4.482-1.67,9.091-2.884,13.995-2.815c12.193,0.17,24.373,0.064,36.194-3.613
	c0.875-0.275,1.889-0.1,3.027-0.137c-0.183,0.724-0.274,1.279-0.462,1.804c-1.585,4.562-3.789,8.818-6.886,12.521
	c-2.777,3.319-6.143,6.083-10.396,7.169C523.615,99.37,516.11,99.779,508.589,99.127z M457.057,96.556
	c3.885-3.309,13.476-2.236,20.439-0.285C475.558,97.671,459.371,97.958,457.057,96.556z M448.32,99.435
	c4.188-0.048,8.376-0.05,12.562-0.016c8.974,0.08,17.95,0.165,26.923,0.32c1.564,0.026,3.119,0.426,4.68,0.649
	c-0.035,0.291-0.072,0.583-0.109,0.873c-16.49,4.599-33.052,2.765-49.735,0.201c0.628-0.764,1.307-1.388,2.099-1.598
	C445.89,99.562,447.123,99.45,448.32,99.435z M433.383,104.068c1.251-0.155,2.104-0.399,2.941-0.342
	c5.47,0.349,10.962,0.527,16.394,1.209c14.108,1.769,28.097,1.046,42.036-1.506c1.064-0.196,2.164-0.203,3.243-0.298
	C487.792,110.882,443.841,111.517,433.383,104.068z M471.502,125.747c-11.768,1.283-23.55,2.437-35.336,3.589
	c-6.604,0.646-13.265,1.618-19.733-0.706c-7.546-2.711-15.022-5.623-22.517-8.472c-0.583-0.222-1.124-0.602-1.615-0.992
	c-0.842-0.667-1.029-1.439,0.009-2.079c2.842-1.751,5.516-4.065,8.608-5.073c11.982-3.906,24.212-5.811,36.834-3.195
	c10.636,2.204,21.29,3.773,32.29,3.157c10.744-0.604,21.296-1.502,31.321-5.751c1.988-0.844,4.126-1.34,6.194-1.998
	c0.16,0.162,0.327,0.32,0.488,0.48c-0.934,1.372-1.659,2.968-2.842,4.071c-3.111,2.913-6.409,5.63-9.656,8.396
	c-3.5,2.979-7.359,5.467-11.825,6.563C479.722,124.718,475.604,125.3,471.502,125.747z M399.131,137.297
	c-7.7-2.891-15.069-6.387-22.088-10.67c-3.133-1.911-6.39-3.623-10.116-5.72c1.174-0.559,1.847-0.994,2.584-1.21
	c3.445-0.999,7.009-1.322,10.43-0.303c8.785,2.611,17.503,5.444,26.231,8.242c5.321,1.706,10.597,3.561,15.932,5.229
	c1.499,0.473,3.126,0.528,4.966,0.814c-0.542,0.52-0.878,0.898-1.267,1.203c-2.677,2.094-5.797,2.941-9.104,3.438
	C410.757,139.21,404.943,139.477,399.131,137.297z M388.533,140.281c-11.551-4.456-22.524-10.139-33.068-16.629
	c-0.526-0.324-1.142-0.499-1.715-0.744c0.2-0.244,0.401-0.491,0.603-0.733c2.47-1.09,4.994-0.739,7.348,0.234
	c6.179,2.564,12.381,5.101,18.387,8.031c6.798,3.314,13.421,6.948,20.733,9.109c4.559,1.353,9.122,1.967,13.839,1.202
	c1.804-0.29,3.621-0.523,5.429-0.779c0.069,0.228,0.14,0.453,0.21,0.681c-1.172,0.539-2.292,1.28-3.52,1.576
	C407.174,144.541,397.688,143.815,388.533,140.281z M404.016,149.013c-8.228,0.572-16.48,1.357-24.706,1.205
	c-9.24-0.174-17.86-3.259-26.056-7.532c-8.799-4.588-17.686-9.004-26.527-13.512c-0.744-0.381-1.424-0.893-2.133-1.342
	c0.014-0.181,0.03-0.361,0.046-0.543c0.747-0.262,1.473-0.641,2.242-0.764c4.839-0.778,9.684-1.568,14.538-2.227
	c4.491-0.608,8.793-0.109,12.972,1.937c9.69,4.751,19.419,9.43,29.236,13.905c7.73,3.529,15.831,5.733,24.441,5.569
	c1.417-0.028,2.833,0.117,4.25,0.185c-0.649,0.747-1.359,1.23-2.147,1.476C408.139,147.995,406.099,148.866,404.016,149.013z
	 M354.532,155.955c-11.354-1.891-21.446-6.975-31.103-12.952c-5.492-3.402-10.755-7.165-16.185-10.669
	c-1.716-1.102-3.637-1.885-5.801-2.983c0.785-0.274,1.243-0.579,1.695-0.57c4.198,0.074,8.464-0.244,12.576,0.41
	c7.98,1.272,15.264,4.446,22.296,8.557c11.491,6.727,23.639,12.064,36.805,14.726c0.245,0.051,0.455,0.25,1.178,0.657
	c-1.433,0.823-2.462,1.669-3.644,2.049C366.494,157.072,360.49,156.949,354.532,155.955z M357.461,161.255
	c-3.504,0.162-7.109,0.655-10.5,0.05c-5.427-0.959-10.694-2.778-16.066-4.085c-5.208-1.266-10.547-2.054-15.685-3.553
	c-15.806-4.602-30.153-12.423-44.343-20.552c-0.857-0.494-1.567-1.253-2.342-1.886c0.036-0.152,0.077-0.309,0.115-0.463
	c1.059-0.191,2.102-0.492,3.16-0.556c3.81-0.224,7.624-0.591,11.423-0.472c3.021,0.095,6.141,0.45,9.014,1.339
	c8.189,2.55,15.783,6.462,23.2,10.747c6.587,3.81,13.19,7.613,19.98,11.039c7.561,3.808,15.539,6.463,24.142,6.663
	c0.283,0.007,0.557,0.198,0.836,0.302c0.019,0.143,0.044,0.293,0.065,0.44C359.462,160.612,358.469,161.209,357.461,161.255z
	 M251.279,131.646c0.539-0.188,1.039-0.547,1.463-0.476c3.619,0.605,7.436,0.753,10.789,2.069
	c5.188,2.041,10.016,4.988,15.074,7.381c7.979,3.77,15.91,7.68,24.075,11.006c6.665,2.715,13.644,4.655,20.477,6.963
	c1.771,0.599,3.507,1.293,5.356,1.979c-0.268,0.27-0.335,0.377-0.435,0.424c-0.252,0.136-0.509,0.275-0.784,0.356
	c-6.446,1.829-12.964,2.911-19.634,1.361c-8.248-1.917-15.789-5.621-22.948-9.952C273.56,146.012,262.657,138.857,251.279,131.646z
	 M245.871,133.682c2.971,1.101,6.017,2.142,8.759,3.692c6.729,3.802,13.335,7.826,19.929,11.854
	c8.667,5.292,17.183,10.854,26.866,14.223c1.387,0.482,2.765,0.993,4.149,1.492c-0.02,0.196-0.045,0.394-0.067,0.587
	c-1.304,0.048-2.637,0.298-3.9,0.096c-5.146-0.805-9.823-2.983-14.302-5.504c-8.145-4.59-16.191-9.351-24.267-14.06
	c-7.02-4.095-14.025-8.216-21.032-12.332c-0.066-0.04-0.07-0.197-0.234-0.725C243.271,133.239,244.654,133.233,245.871,133.682z
	 M297.427,168.429c-6.167-0.77-12.404-1.246-18.462-2.553c-14.854-3.206-27.987-10.65-41.223-17.688
	c-7.691-4.085-15.064-8.763-22.568-13.193c-0.625-0.366-1.178-0.858-1.771-1.298c0.678-1.557,1.983-1.498,3.148-1.589
	c9.104-0.704,17.617,1.465,25.841,5.214c12.324,5.618,23.889,12.548,35.17,20c6.219,4.107,12.602,7.943,20,9.645
	c0.936,0.216,1.85,0.526,2.771,0.792c-0.008,0.106-0.016,0.214-0.024,0.32C299.346,168.207,298.359,168.547,297.427,168.429z
	 M260.992,166.543c-3.861-0.678-7.77-1.269-11.512-2.386c-10.76-3.211-19.845-9.438-28.444-16.438
	c-4.157-3.389-8.249-6.855-12.412-10.239c-1.177-0.954-2.494-1.734-3.747-2.592c0.051-0.156,0.106-0.311,0.159-0.469
	c0.849,0.135,1.811,0.067,2.538,0.445c4.23,2.212,8.473,4.429,12.599,6.834c8.873,5.173,17.568,10.657,26.552,15.629
	c5.031,2.782,10.493,4.787,15.754,7.161c0.711,0.318,1.374,0.754,2.059,1.135c-0.024,0.23-0.042,0.463-0.065,0.692
	C263.307,166.408,262.103,166.739,260.992,166.543z M190.2,133.854c1.148,0.273,2.411,0.326,3.426,0.857
	c3.624,1.886,7.387,3.622,10.7,5.976c6.439,4.586,12.599,9.565,18.893,14.359c7.19,5.477,14.574,10.555,23.492,12.975
	c9.065,2.456,18.285,3.993,27.614,4.7c9.001,0.683,17.912,1.675,26.59,4.282c2.099,0.628,4.06,1.381,5.782,3.475
	c-0.966-0.198-1.515-0.312-2.062-0.424c-6.562-1.294-13.075-3.022-19.7-3.795c-12.205-1.418-24.502-2.092-36.724-3.415
	c-11.294-1.221-21.837-4.722-31.091-11.605c-9.514-7.08-17.301-15.956-25.558-24.348c-0.694-0.711-1.153-1.662-1.723-2.5
	C189.962,134.215,190.079,134.035,190.2,133.854z M241.702,184.188c-2.356,0.148-4.738,0.507-7.067,0.299
	c-9.599-0.843-17.947-4.846-25.564-10.541c-5.688-4.255-9.979-9.872-14.578-15.182c-5.165-5.966-10.174-12.078-15.484-17.906
	c-2.534-2.776-5.618-5.043-8.451-7.539c0.01-0.129,0.017-0.262,0.025-0.393c1.547,0.534,3.163,0.927,4.634,1.624
	c5.195,2.464,9.049,6.544,12.608,10.898c3.218,3.925,6.282,7.974,9.466,11.93c4.534,5.637,10.024,10.182,16.159,13.988
	c7.773,4.823,16.312,7.79,25,10.422c1.567,0.47,3.104,1.045,4.659,1.571C242.625,183.912,242.171,184.161,241.702,184.188z
	 M185.395,152.927c4.927,5.8,9.6,11.836,14.82,17.359c5.922,6.268,12.943,11.1,21.357,13.611c1.143,0.343,2.24,0.84,3.361,1.267
	c-0.023,0.186-0.046,0.369-0.065,0.552c-0.48,0.018-0.998,0.158-1.436,0.03c-3.253-0.966-6.622-1.685-9.706-3.046
	c-6.124-2.697-11.223-6.988-16.207-11.38c-6.643-5.854-10.8-13.539-15.297-20.973c-0.036-0.061,0.066-0.201,0.235-0.676
	C183.522,150.845,184.488,151.862,185.395,152.927z M202.284,188.755c-4.257-1.732-8.575-3.606-12.333-6.192
	c-8.36-5.771-15.258-13.182-21.858-20.887c-4.573-5.338-10.722-13.244-17.47-21.293c-2.673-3.188-5.934-5.88-9.13-8.999
	c0.675-0.157,1.314-0.443,1.956-0.436c4.04,0.062,8.092,0.016,12.111,0.346c4.226,0.345,8.052,1.984,11.345,4.696
	c4.349,3.592,7.893,7.906,11.056,12.553c4.932,7.248,9.697,14.622,14.905,21.669c2.575,3.482,5.776,6.582,9.075,9.417
	c2.817,2.423,6.174,4.224,9.281,6.309c0.776,0.518,1.526,1.078,2.608,1.847C209.747,189.494,205.952,190.252,202.284,188.755z
	 M162.48,173.474c-7.117-10.5-14.704-20.58-23.944-29.318c-4.766-4.514-9.015-9.627-14.755-13.052
	c-0.261-0.153-0.423-0.482-0.849-0.995c0.854-0.224,1.472-0.485,2.102-0.542c3.677-0.326,6.956,0.831,9.973,2.82
	c4.901,3.231,9.207,7.136,12.906,11.698c3.518,4.348,6.923,8.794,10.542,13.058c5.305,6.249,10.524,12.585,16.94,17.786
	c8.08,6.549,16.316,12.857,25.858,17.379c-7.213,2.045-14.289,1.799-20.969-1.722C172.74,186.609,167.176,180.398,162.48,173.474z
	 M129.047,138.522c7.62,6.858,14.412,14.475,20.333,22.857c2.556,3.621,5.202,7.182,7.805,10.773
	c-0.161,0.157-0.32,0.322-0.477,0.483c-0.975-0.824-2.085-1.534-2.908-2.492c-4.021-4.682-8.194-9.264-11.9-14.19
	c-7.763-10.332-16.467-19.491-28.487-24.919c-0.587-0.266-1.042-0.833-1.561-1.257c0.096-0.175,0.192-0.349,0.289-0.517
	c1.295,0.38,2.629,0.679,3.887,1.156C120.897,132.257,125.213,135.078,129.047,138.522z M126.559,156.751
	c-3.762-6.076-7.189-12.361-10.797-18.533c-0.594-1.022-1.342-1.955-2.023-2.928c0.074-0.119,0.15-0.24,0.224-0.358
	c0.747,0.205,1.568,0.274,2.223,0.64c2.414,1.351,4.873,2.652,7.124,4.239c8.909,6.28,15.421,14.787,21.888,23.399
	c3.934,5.237,8.573,9.935,12.892,14.88c0.377,0.429,0.716,0.896,1.406,1.763c-1.406-0.068-2.285,0.034-3.087-0.174
	c-1.949-0.504-3.955-0.95-5.775-1.771C140.462,173.317,132.41,166.215,126.559,156.751z M94.625,133.268
	c0.497,1.526,1.112,3.023,1.464,4.58c1.442,6.389-0.156,12.353-2.615,18.198c-2.038,4.837-4.001,9.705-6.008,14.557
	c-0.188,0.452-0.45,0.875-0.678,1.312c-0.124-0.039-0.249-0.075-0.377-0.113c0.153-0.801,0.21-1.635,0.469-2.398
	c1.553-4.53,3.061-9.082,4.754-13.554c2.563-6.761,3.937-13.63,2.574-20.857c-0.098-0.514-0.175-1.032-0.258-1.552
	C94.179,133.386,94.4,133.325,94.625,133.268z M99.113,127.625c1.345,0.493,2.985,0.655,3.987,1.537
	c3.232,2.854,6.731,5.616,9.215,9.067c3.794,5.273,7.006,11.001,10.155,16.703c7.32,13.233,15.55,25.682,28.002,34.764
	c0.455,0.334,0.766,0.859,1.447,1.645c-3.505-0.42-6.18-1.547-8.69-3.122c-7.925-4.981-14.422-11.463-20.129-18.843
	c-8.234-10.66-14.499-22.499-20.829-34.305c-1.219-2.274-2.361-4.585-3.539-6.879C98.859,128.002,98.988,127.812,99.113,127.625z
	 M50.057,113.971c12.45,0.707,24.893,1.557,37.346,2.225c5.067,0.268,10.167,0.034,15.236,0.338
	c14.005,0.836,27.998,1.944,42.005,2.752c18.104,1.046,36.206,2.331,54.327,2.727c22.917,0.507,45.85,0.458,68.77,0.233
	c33.935-0.337,67.752-2.316,101.215-8.5c18.047-3.333,36.132-6.453,53.724-11.866c14.29-4.396,28.591-8.75,42.907-13.054
	c10.068-3.025,20.064-6.215,29.569-10.784c3.531-1.698,7.154-3.219,10.779-4.718c1.1-0.452,2.336-0.566,3.51-0.836
	c-0.268,0.613-0.632,0.879-1.034,1.054c-7.195,3.134-14.29,6.538-21.617,9.33c-24.73,9.413-49.875,17.557-75.557,23.973
	c-13.386,3.345-26.76,6.768-40.237,9.698c-11.051,2.403-22.205,4.383-33.388,6.076c-10.668,1.616-21.399,3.099-32.159,3.792
	c-17.34,1.121-34.726,1.634-52.094,2.25c-42.605,1.515-85.199,1.908-127.744-1.587c-12.65-1.042-25.282-2.362-37.95-3.153
	c-11.806-0.736-23.646-1.208-35.476-1.281c-8.548-0.049-16.652-1.343-24.272-5.274c-1.948-1.005-3.919-1.968-5.139-4.48
	c1.26-0.043,2.163-0.131,3.06-0.091C33.911,113.166,41.988,113.512,50.057,113.971z M87.767,96.035
	c4.641-6.667,10.727-11.697,17.505-15.989c0.688-0.434,1.531-0.614,2.307-0.914c0.146,0.187,0.296,0.379,0.443,0.566
	c-2.122,3.269-3.848,6.9-6.445,9.729c-5.75,6.257-10.039,13.316-13.325,21.074c-0.323,0.767-0.941,1.404-1.423,2.104
	c-0.745-0.724-1.584-1.381-2.188-2.204c-0.34-0.463-0.343-1.203-0.394-1.828C83.876,103.965,85.109,99.848,87.767,96.035z
	 M121.625,57.26c-0.248,1.064-0.383,1.847-0.615,2.597c-1.083,3.529-3.227,6.471-5.871,8.862
	c-4.576,4.138-9.315,8.116-14.217,11.858c-7.763,5.932-14.46,12.712-18.93,21.524c-0.645,1.271-1.781,2.294-2.959,3.764
	c-1.183-2.468-1.024-4.435-0.146-6.113c1.842-3.506,3.521-7.26,6.102-10.178c3.645-4.121,7.863-7.795,12.156-11.266
	c8.124-6.575,16.526-12.812,23.654-20.526C120.936,57.634,121.147,57.557,121.625,57.26z"/>
</svg>
