<?xml version="1.0" encoding="utf-8"?>
<!-- Generator: Adobe Illustrator 17.0.0, SVG Export Plug-In . SVG Version: 6.00 Build 0)  -->
<!DOCTYPE svg PUBLIC "-//W3C//DTD SVG 1.1//EN" "http://www.w3.org/Graphics/SVG/1.1/DTD/svg11.dtd">
<svg version="1.1" id="Layer_2" xmlns="http://www.w3.org/2000/svg" xmlns:xlink="http://www.w3.org/1999/xlink" x="0px" y="0px"
	 width="25.071px" height="45.134px" viewBox="0 0 25.071 45.134" enable-background="new 0 0 25.071 45.134" xml:space="preserve">
<path fill="#13769D" d="M12.041,31.595c0,0,4.946-3.066,4.257-4.516c-0.691-1.451-5.955-4.284-6.825-3.871
	c-0.87,0.414-7.488,0.716-9.048-0.32c-1.561-1.036,7.371-5.821,9.389-6.069c2.016-0.248,5.904,3.061,7.112,3.732
	c1.209,0.67,1.68-1.333,1.68-1.333s2.254-4.986,2.482-5.629c0.228-0.641,2.954,3.219,1.095,6.417
	c-1.859,3.197,1.368,3.619-1.058,6.375l3.702,1.798C24.828,28.18,19.695,37.206,12.041,31.595z"/>
</svg>
