<?xml version="1.0" encoding="utf-8"?>
<!-- Generator: Adobe Illustrator 17.0.0, SVG Export Plug-In . SVG Version: 6.00 Build 0)  -->
<!DOCTYPE svg PUBLIC "-//W3C//DTD SVG 1.1//EN" "http://www.w3.org/Graphics/SVG/1.1/DTD/svg11.dtd">
<svg version="1.1" id="Layer_2" xmlns="http://www.w3.org/2000/svg" xmlns:xlink="http://www.w3.org/1999/xlink" x="0px" y="0px"
	 width="28.425px" height="45.134px" viewBox="0 0 28.425 45.134" enable-background="new 0 0 28.425 45.134" xml:space="preserve">
<path fill="#13769D" d="M21.293,25.264c0,0-6.298,5.986-13.5,3.596c0,0-1.624-0.892,1.81-1.556c3.434-0.664,4.089-3.229,4.089-3.229
	s-2.167-1.856-3.18-2.702C9.499,20.528,0.726,22.634,0.068,23.2c-0.658,0.565,3.354-7.746,17.024-7.483c0,0,1.226,2.093,2.193,3.551
	c0.967,1.457,3.341,0.56,4-0.006c0.658-0.565,3.244-2.215,4.046-0.617c0.802,1.599-1.163,9.295-5.397,10.36
	C21.934,29.005,21.46,27.123,21.293,25.264z"/>
</svg>
