<?xml version="1.0" encoding="utf-8"?>
<!-- Generator: Adobe Illustrator 17.1.0, SVG Export Plug-In . SVG Version: 6.00 Build 0)  -->
<!DOCTYPE svg PUBLIC "-//W3C//DTD SVG 1.1//EN" "http://www.w3.org/Graphics/SVG/1.1/DTD/svg11.dtd">
<svg version="1.1" id="Layer_2" xmlns="http://www.w3.org/2000/svg" xmlns:xlink="http://www.w3.org/1999/xlink" x="0px" y="0px"
	 viewBox="0 0 30.5 45.1" enable-background="new 0 0 30.5 45.1" xml:space="preserve">
<path fill="#13769D" d="M26.6,30.5c0,0-3.7-6.9-5.7-7.1s-2.6,3.9-1.9,5.3s-6.4,0.2-8.1-1.8s-2.4-6.2-2.4-6.2S16,23,13.9,20
	S3.2,19.7,1.3,20.8c-1.9,1-2.7-2.1,5-5.8c7.7-3.7,9.4-3.9,12.5,0.1c0,0,2.2,0.9,3.8-1c1.6-1.9,3,0.6,1.8,1.9
	c-1.2,1.3-0.6,2.5,2.5,1.7c3.1-0.8,4.9,14,2.8,16.3C27.5,36.2,27.2,30.9,26.6,30.5z"/>
</svg>
