<svg xmlns="http://www.w3.org/2000/svg" version="1.1" id="Layer_2" x="0px" y="0px" width="28.425px" height="45.134px" viewBox="0 0 28.425 45.134" enable-background="new 0 0 28.425 45.134" xml:space="preserve">
  <path fill="#13769D" d="M21.293 25.264c0 0-6.298 5.986-13.5 3.596 0 0-1.624-0.892 1.81-1.556 3.434-0.664 4.089-3.229 4.089-3.229s-2.167-1.856-3.18-2.702C9.499 20.528 0.726 22.634 0.068 23.2c-0.658 0.565 3.354-7.746 17.024-7.483 0 0 1.226 2.093 2.193 3.551 0.967 1.457 3.341 0.56 4-0.006 0.658-0.565 3.244-2.215 4.046-0.617 0.802 1.599-1.163 9.295-5.397 10.36C21.934 29.005 21.46 27.123 21.293 25.264z"/>
</svg>
