<?xml version="1.0" encoding="utf-8"?>
<!-- Generator: Adobe Illustrator 17.0.0, SVG Export Plug-In . SVG Version: 6.00 Build 0)  -->
<!DOCTYPE svg PUBLIC "-//W3C//DTD SVG 1.1//EN" "http://www.w3.org/Graphics/SVG/1.1/DTD/svg11.dtd">
<svg version="1.1" id="Layer_2" xmlns="http://www.w3.org/2000/svg" xmlns:xlink="http://www.w3.org/1999/xlink" x="0px" y="0px"
	 width="43.6px" height="46.951px" viewBox="0 0 43.6 46.951" enable-background="new 0 0 43.6 46.951" xml:space="preserve">
<path fill="#13769D" d="M37.843,39.056c0,0-11.821,7.292-13.878,7.248c-2.057-0.044-6.42-1.373-7.119-7.152
	c0,0,9.443-1.923,10.465-4.783c0,0,0.307-1.503-2.16-1.693C22.684,32.485,8.285,25.725,0,15.392c0,0,20.484,4.558,28.115,10.28
	c0,0,1.32-23.025,0.241-23.872c-1.08-0.846,2.131-3.385,4.244,3.59c2.114,6.976,4.885,15.338,4.226,20.401
	c0,0,2.218-1.05,2.992-1.926c0.773-0.876,2.933,0.817,1.444,3.05c-1.489,2.233-1.023,6.085-6.175,9.542
	C35.086,36.458,36.53,39.507,37.843,39.056z"/>
</svg>
