<?xml version="1.0" encoding="utf-8"?>
<!-- Generator: Adobe Illustrator 17.1.0, SVG Export Plug-In . SVG Version: 6.00 Build 0)  -->
<!DOCTYPE svg PUBLIC "-//W3C//DTD SVG 1.1//EN" "http://www.w3.org/Graphics/SVG/1.1/DTD/svg11.dtd">
<svg version="1.1" id="Layer_2" xmlns="http://www.w3.org/2000/svg" xmlns:xlink="http://www.w3.org/1999/xlink" x="0px" y="0px"
	 viewBox="0 0 39.2 45.1" enable-background="new 0 0 39.2 45.1" xml:space="preserve">
<path fill="#13769D" d="M2.6,25l6.6-1.2c0,0-9.1-5.1-8.3-14.1c0,0,10.6,12.4,15.6,12.7c5,0.2,5.1-1.1,5,0.2
	c-0.1,1.3-0.5,2.4-1.8,2.3c0,0,10.1,6.6,18.3,6.1c0,0-4.8,3-23.8-3.9c0,0-2-0.1-3,0.9c-1,1-2.2,1.9-3.6,1.6C6.4,29.3,3,27.4,2.6,25z
	"/>
</svg>
