<svg xmlns="http://www.w3.org/2000/svg" version="1.1" id="Layer_1" x="0px" y="0px" viewBox="0 0 216 216" enable-background="new 0 0 216 216" xml:space="preserve">
  <path fill="#EAEEEF" d="M41.7 82.1c-0.2 0-0.5 0.3-0.6 0.5 -0.1 0.4 0.2 0.5 0.5 0.6 1 0.2 1.9 1.3 2 2.5 0.2 2.2-0.4 4.2-1.7 6 -1.4 1.9-3.2 3.4-5.1 4.8 -2.3 1.7-4.7 3.3-6.7 5.4 -1.4 1.5-2.6 3.1-3.3 5 -0.2 0.5-0.3 1-0.3 1.5 -0.2 1.4-0.7 1.9-2 2 -1.8 0.1-3.6 0.3-5.4 0.1 -3.8-0.2-7.7-0.6-11.5-0.9 -1.6-0.1-3.2-0.1-4.8-0.2 -0.1 0-0.3 0-0.4 0 -0.4 0-0.7 0.1-0.7 0.5 0 0.3 0.3 0.6 0.5 0.7 0.7 0.4 1.4 0.6 2.1 1 1.5 0.8 3 1.7 4.4 2.6 2.9 1.8 6 2.5 9.5 2.3 3.5-0.2 7 0 10.5 0.2 0.8 0 1.7 0.5 2.5 0.8 0.3 0.1 0.6 0.5 0.7 0.9 0.8 1.9 0.7 3.8 0.2 5.7 -0.7 2.5-1.6 4.9-2.3 7.4 -0.4 1.3-0.5 2.7-0.7 4 -0.1 0.9 0.3 1.7 0.9 2.3 0.1 0.1 0.4 0.2 0.4 0.2 0.1-0.1 0.3-0.3 0.3-0.5 0-3 0.7-5.8 2.1-8.4 0.6-1.2 1.2-2.4 1.8-3.6 0.1-0.2 0.3-0.4 0.4-0.5 0.1 0 0.1 0 0.2 0 0.1 0.3 0.1 0.6 0.2 0.9 0.3 3 0.6 6.1 0.9 9.1 0.2 1.9 0.4 3.8 1.4 5.5 0.4 0.7 0.9 1.4 1.3 2.1 0.1 0 0.2-0.1 0.3-0.1 0-0.2 0-0.4-0.1-0.6 -1.4-1.7-1.8-3.7-1.9-5.7 -0.2-3.1-0.4-6.1-0.6-9.2 -0.1-1.2-0.2-2.4-0.4-3.6 0-0.1 0-0.2 0.2-0.3 0.2 0.3 0.4 0.6 0.6 0.9 1.4 2.9 3.2 5.5 5 8.1 1.6 2.3 3.5 4.5 5.8 6.2 0.9 0.7 2 1.2 3 1.7 2.5 1.1 5.2 1.5 7.9 1.9 1.4 0.2 2.7 0.6 4.1 0.8 0.2 0 0.4 0 0.6 0 0-0.1 0-0.1 0.1-0.2 -0.2-0.1-0.4-0.2-0.7-0.3 -2.6-0.7-5-1.8-7.4-3.1 -2.5-1.3-4.4-3.3-6.2-5.4 -0.1-0.1-0.2-0.3-0.2-0.5 0.3 0.1 0.6 0.2 0.8 0.4 1.9 1.3 3.9 2.1 6.2 2.5 0.5 0.1 1 0.4 1.4 0.7 2 1.9 4.3 3.2 6.9 3.9 2.1 0.6 4.3 0.4 6.5 0.1 2.6-0.4 5.3-0.8 8-1.2 1.3-0.2 2.6-0.1 4-0.1 1.1-0.1 2.2-0.2 3.3-0.4 2-0.2 3.8 0.2 5.7 0.6 0.7 0.2 1.3 0.3 2 0.4 0.2 0 0.6-0.2 0.6-0.3 0-0.2-0.1-0.6-0.3-0.7 -2.4-1.7-5-2.8-7.9-3.5 -2.5-0.6-5-1.3-7.4-2.3 -2.6-1.1-4.9-2.7-6.9-4.7 -1.6-1.5-2.9-3.2-4.3-4.9 -1.3-1.6-2.6-3-4.2-4.3 -0.1-0.1-0.2-0.2-0.2-0.4 0.3 0.1 0.5 0.1 0.8 0.2 1.3 0.4 2.3 1.3 3.1 2.2 1.8 2 3.6 3.9 5.4 5.9 1.6 1.6 3.2 3.2 5.2 4.3 2.7 1.6 5.5 2.4 8.6 2.6 4.8 0.2 9.7 0.4 14.5 1.2 3.8 0.6 7.5 1.6 11 3.5 0.8 0.5 1.5 1.2 2.3 1.8 0.2 0.1 0.5 0.3 0.6 0.3 0.2-0.1 0.3-0.4 0.3-0.6 0-1.1-0.4-2.1-1.2-3 -1.2-1.4-2.7-2.2-4.3-3 -0.8-0.4-1.7-0.7-2.5-1 -0.3-0.1-0.6-0.3-0.9-0.5 1.7-0.5 3.3-1 4.8-1.5 0.8-0.3 1.6-0.5 2.4-0.8 1.9-0.7 3.8-0.7 5.8-0.5 5 0.6 9.8-0.3 14.4-2.3 1.2-0.5 2.5-1 3.8-1.4 0.4-0.1 0.9-0.2 1.3-0.1 2.8 0.5 5.3-0.3 7.6-2 1.4-1.1 2.8-2.2 4.1-3.4 1.4-1.2 3-2.2 4.9-2.4 1.4-0.1 2.8-0.1 4.1-0.2 3.2-0.3 6.5-0.5 9.7-0.9 2.1-0.3 4-1.4 5.6-2.7 1.6-1.3 3.1-2.9 4.5-4.3 1.3-1.3 2.7-2.1 4.6-2.5 1.6-0.3 3.2-0.8 4.7-1.5 2.5-1.1 4.1-3.2 5.3-5.6 0.7-1.3 1.5-2.3 2.7-3.2 2.3-1.5 4.6-3.3 6.1-5.7 0.3-0.4 0.6-0.8 0.8-1.3 0.7-1.4 1.5-2.8 2.5-4 1.8-2.2 3.5-4.4 5.8-6.1 0.8-0.6 1.7-1 2.8-1.2 0.5-0.1 0.9-0.3 0.9-0.8 0-0.5-0.4-0.8-0.9-0.9 -1.7-0.3-3.4-0.4-5.1 0 -2.2 0.6-4.4 1.4-6.5 2.2 -2.2 0.8-4.3 1.8-6.5 2.6 -0.8 0.3-1.7 0.4-2.6 0.5 -1.9 0.3-3.8 0.4-5.7 0.7 -1.4 0.2-2.8 0.3-4.2-0.4 -1.4-0.7-2.9-1.1-4.1-2.2 -0.1-0.1-0.2-0.2-0.4-0.2 -1.4-0.7-2.8-1.4-4.2-2.1 -1-0.5-2.1-0.7-3.2-0.7 -0.2 0-0.5 0-0.7-0.1 -2.3-0.8-4.7-0.5-7 0 -0.4 0.1-0.8 0.1-1.1 0 -3.2-0.9-5.8 0.1-8.1 2.2 -2.7 2.4-5.3 4.7-7.9 7.2 -2.5 2.4-5.4 4.2-8.6 5.5 -1.1 0.4-2.1 0.9-3.2 1.3 -0.2 0.1-0.5 0.1-0.8 0.1 0-0.2-0.1-0.5 0-0.7 0.2-1.6 1.1-2.9 1.8-4.2 2-3.5 4.6-6.4 7.8-8.7 2.3-1.6 4.9-2.7 7.8-2.8 0.2 0 0.3-0.2 0.5-0.3 -0.1-0.2-0.2-0.4-0.3-0.5 -0.8-0.2-1.6-0.6-2.5-0.6 -4-0.3-7.7 0.6-11.2 2.4 -4.2 2.1-7.8 4.9-10.8 8.5 -1.9 2.3-4.2 4.2-6.4 6.1 -0.1 0.1-0.3 0.2-0.4 0.4 -2 2.3-4.7 2.9-7.5 3 -0.4 0-0.8-0.2-1.2-0.3 -0.2-0.1-0.4-0.3-0.4-0.5 -0.3-2-0.7-4-0.5-6.1 0.4-5.2 3-9 7.5-11.5 3.1-1.7 6.5-2.8 10-3.1 0.4 0 0.8-0.1 1.1-0.3 0.4-0.2 0.4-0.6 0-0.7 -0.4-0.2-0.9-0.3-1.3-0.4 -1.2-0.1-2.4-0.1-3.5-0.3 -1.3-0.2-2.6-0.6-4-0.9 -3.7-0.8-7.4-0.6-10.8 1.2 -2.2 1.2-4.4 2.4-6.6 3.6 -0.5 0.3-1.2 0.3-1.8 0.4 -0.6 0.1-1.3 0.1-1.8 0.3 -2.3 1.1-4.6 2.3-7 3.4 -0.5 0.2-1 0.4-1.5 0.3 -1.7 0-3.4 0.2-5.1 0.7 -0.4 0.1-0.8 0.1-1.2 0.1 -1.1 0.2-2.1 0.5-3.2 0.7 -0.2 0.1-0.5 0.2-0.7 0.2 -1.3 0.2-2.6 0.5-4 0.6 -1.3 0.1-2.4 0.5-3.5 1.1 -2.5 1.7-5.1 3.3-7.4 5.4 -2.5 2.3-5.4 4.1-8.1 6.1 -2.7 2-5.5 4-7.4 6.8 -0.5 0.8-0.9 1.6-1.4 2.4 -0.2 0.3-0.3 0.6-0.6 1.1 -0.3-0.4-0.5-0.7-0.6-1 -0.9-3.6-0.8-7.2 0.9-10.6 1.3-2.6 3.4-4.4 6.2-5.4 3.2-1.1 6.3-2.2 9.5-3.3 2-0.7 3.9-1.4 5.3-3 0.3-0.4 0.6-0.8 0.8-1.2 0.1-0.3 0-0.7-0.1-0.9 -0.2-0.3-0.6-0.4-0.8 0 -0.7 1.3-2 2-3.3 2.6 -1.4 0.7-2.9 1.2-4.4 1.6 -4.3 1-8.4 2.3-12.4 4.1 -2.2 1-4.3 2.1-6.2 3.6 -0.2 0.1-0.3 0.2-0.5 0.3 0 0-0.1 0-0.3 0.1 0.2-0.7 0.3-1.4 0.6-2 0.7-1.9 0.9-3.8 0.8-5.8 0-1.5-0.6-2.7-1.6-3.8C42.7 82.3 42.2 82.2 41.7 82.1zM48.4 110.7c0.3 1.5 0 1.8-1.5 2 -0.1 0-0.3 0.1-0.4 0 -2-0.2-4-0.4-6-0.7 -1-0.2-1.6-0.9-1.8-1.9 -0.1-0.7-0.2-1.4-0.2-2.1 0-1.9 0.5-3.7 1.1-5.5 2-5.9 6-9.9 11.8-12.1 0.4-0.2 0.8-0.2 1.4-0.4 -0.1 0.3-0.1 0.3-0.2 0.3 -0.2 0.2-0.5 0.4-0.7 0.6 -1.4 1.1-2.5 2.3-3.3 3.9 -1.6 3.5-2 7.1-1.3 10.9C47.7 107.5 48.1 109.1 48.4 110.7zM39.3 99.8c0.2-0.2 0.4-0.4 0.6-0.5 0.1 0 0.1 0.1 0.2 0.1 -0.2 0.4-0.3 0.9-0.5 1.3 -1.8 3.4-2.5 6.9-1.9 10.7 0 0.2 0 0.4-0.1 0.5 -0.8 0.6-1.9 0.2-2.1-0.8 0-0.2 0-0.3-0.1-0.5C35.1 106.5 37 103 39.3 99.8zM35.2 105.9c-0.5 1.4-0.9 2.9-0.8 4.4 0 0.2 0 0.4-0.1 0.7 -0.2 0.8-1 1.2-1.8 1 -0.6-0.2-0.9-0.8-0.6-1.5 0.2-0.4 0.3-0.9 0.6-1.3 0.8-1.4 1.5-2.7 2.8-3.8C35.3 105.5 35.3 105.7 35.2 105.9zM78 86.1c-0.2 0.2-0.3 0.2-0.4 0.3 -1.8 1.2-3.3 2.6-4.6 4.3 -2.5 3.1-5.1 6.2-7.6 9.4 -2.8 3.5-5.9 6.7-9.2 9.7 -0.9 0.8-1.9 1.6-2.9 2.4 -0.5 0.4-0.9 0.3-1.4-0.1 -0.2-0.2-0.3-0.3-0.5-0.5 -1.4-2-1.4-4-0.3-6.1 1.3-2.6 3.4-4.5 5.8-5.9 4.4-2.6 8.7-5.4 12.5-8.9 1.6-1.5 3.3-2.9 5.3-3.8C75.8 86.2 76.8 85.8 78 86.1zM82.1 85c0 0 0 0.1 0.1 0.1 -0.3 0.2-0.5 0.4-0.8 0.6 -1.1 1-2.2 1.9-3.3 2.9 -3.1 3-5.6 6.5-8.3 9.8 -2.9 3.6-5.7 7.3-8.6 10.9 -1 1.3-2.2 2.2-3.8 2.7 -0.8 0.3-1.6 0.5-2.6 0.3 0.3-0.5 0.6-0.9 0.9-1.3 0.6-0.6 1.2-1.2 1.8-1.7 3.9-3.4 7.4-7.1 10.5-11.2 1.8-2.4 3.6-4.8 5.5-7.1 2.1-2.5 4.7-4.5 7.7-5.9C81.5 85.2 81.8 85.1 82.1 85zM67.2 109.1c-0.8 0.8-1.8 1.5-2.7 2.2 -0.3 0.2-0.7 0.5-1.3 0.1 0.2-0.2 0.5-0.3 0.6-0.5 2.7-2.6 5.3-5.3 7.4-8.4 1.2-1.8 2.3-3.6 3.4-5.4 2.2-3.4 4.5-6.7 7.7-9.3 1.8-1.4 3.6-2.7 5.8-3.4 0.2-0.1 0.4-0.1 0.7-0.1 0.1 0.1 0.1 0.2 0.2 0.2 -0.2 0.1-0.4 0.3-0.6 0.4 -1.7 1.3-3.3 2.7-5 3.9 -3.2 2.3-5.7 5.2-7.5 8.6C73.7 101.8 70.6 105.6 67.2 109.1zM69.5 108.3c0.2-0.3 0.4-0.7 0.6-0.9 2.5-2.6 4.5-5.6 6.2-8.8 0.9-1.8 1.9-3.6 3.5-4.9 2.2-1.9 4.4-3.7 6.7-5.6 0.2-0.1 0.4-0.2 0.8-0.3 -0.1 0.3-0.2 0.4-0.2 0.5 -1.7 3-3.4 6.1-5.1 9.1 -1.1 2-2.4 4-4.2 5.5 -2 1.7-4.2 3.2-6.4 4.8 -0.5 0.4-1.1 0.5-1.7 0.8C69.6 108.4 69.6 108.3 69.5 108.3zM60.5 112.1c-0.1-0.1-0.1-0.1-0.2-0.2 0.2-0.2 0.4-0.5 0.6-0.7 1.1-1.2 2.2-2.3 3.2-3.5 2.6-2.8 5-5.9 7.2-9.1 2.5-3.7 5.2-7.2 8.4-10.3 1.2-1.2 2.5-2.4 4-3.1 0.3-0.2 0.7-0.2 1-0.4 0 0.1 0 0.1 0.1 0.2 -0.2 0.1-0.3 0.3-0.5 0.4 -2.2 1.5-4.1 3.3-5.9 5.3 -2.3 2.5-4 5.4-5.8 8.3 -2.9 4.7-6.3 8.8-10.7 12.2C61.6 111.6 61 111.8 60.5 112.1zM98.2 80.5c0.4 0 0.7 0 1.1 0.1 -0.1 0.3-0.2 0.7-0.4 1 -1 1.7-2.2 3.3-3.1 5 -0.8 1.5-1.8 3-3.1 4.1 -1.9 1.6-3.5 3.5-5 5.5 -1.7 2.1-2.8 4.5-3.4 7.2 -0.5 2.3-1.1 4.5-2.3 6.5 -0.8 1.5-1.9 2.8-3.7 3.2 -1.3 0.3-2.7 0.4-4 0.6 -1.7-0.1-3.5-0.2-5.3-0.4 -0.5 0-0.9-0.4-1.3-0.6 -0.3-0.2-0.4-0.6 0-0.9 0.4-0.4 0.9-0.7 1.4-1 1.1-0.7 2.3-1.2 3.3-2 2.1-1.7 4-3.5 6-5.3 2-1.9 3.4-4.3 4.7-6.8 1.1-2.1 2.2-4.2 3.3-6.2 1.1-2 2.5-3.8 4.3-5.3 2-1.8 4.4-3.1 6.6-4.4C97.6 80.7 97.9 80.6 98.2 80.5zM81.9 111.8c0.3-0.5 0.5-1 0.8-1.4 1.2-2.1 1.7-4.4 2.3-6.7 0.4-1.5 0.7-2.9 1.5-4.2 1.7-2.6 3.7-4.9 6-7 0.3-0.2 0.7-0.4 1.1-0.6 0 0.3 0 0.5 0 0.7 -0.5 3.4-1.5 6.7-2.8 9.9 -1.3 3-3.3 5.4-5.7 7.5 -0.9 0.8-1.9 1.4-2.9 2.1C82 111.9 81.9 111.9 81.9 111.8zM106.3 81.4c-3 2.4-5.1 5.3-6.2 9 -0.5 1.5-0.8 3.1-1.3 4.6 -1.1 4.1-2.5 8.1-4.5 11.9 -1.9 3.5-4.9 5.5-8.7 6.5 -0.4 0.1-0.9 0-1.3-0.1 -0.4-0.1-0.6-0.4-0.2-0.8 0.5-0.6 1-1.2 1.5-1.8 0.8-0.8 1.7-1.6 2.4-2.5 3.3-4 5.3-8.6 6.4-13.6 0.6-3 1.4-6 2.8-8.8 1.6-3.2 3.8-5.6 7.1-7.2 1.5-0.7 3-1.5 4.4-2.4 3.7-2.3 7.8-2.9 12-2.2 0.7 0.1 1.4 0.3 2 1 -0.3 0.1-0.5 0.1-0.6 0.2 -3.5 0.7-6.9 1.6-10.2 3C109.8 79 108 80.1 106.3 81.4zM113.1 80.1c-4.1 2.6-7 6.2-8.2 11 -0.5 1.9-0.9 3.9-1.3 5.8 -0.7 3-1.2 6.1-2.6 8.9 -1.3 2.6-3 4.8-5.3 6.5 -1 0.7-2 1.2-3.2 1.2 -0.3 0-0.6-0.1-0.8-0.1 0-0.1-0.1-0.2-0.1-0.2 0.2-0.1 0.4-0.2 0.5-0.3 1.3-1.3 2.5-2.7 3.2-4.4 0.9-2.1 1.7-4.2 2.4-6.4 1.1-3.3 2-6.7 3-10 1-2.9 2.3-5.6 4.4-7.9 2.2-2.3 4.8-4 7.8-4.8 0.4-0.1 1 0 1.5-0.1 -0.1 0.1-0.1 0.2-0.1 0.2C113.9 79.7 113.5 79.9 113.1 80.1zM111 102.2c0 1.3-0.4 2.5-1.2 3.5 -0.5 0.6-1 1.2-1.5 1.7 -2 1.8-3.9 3.5-6 5.2 -0.5 0.4-1.2 0.8-1.9 0.9 -0.7 0.2-1.5 0.2-2.2 0.1 -0.8-0.1-0.9-0.6-0.2-1.1 1.3-1.1 2.5-2.3 3.2-3.9 1.8-3.9 2.9-8 4-12.1 0.9-3.5 1.8-7.1 3.7-10.2 0.7-1.2 1.6-2.4 2.5-3.5 0.5-0.7 1.3-1 2.3-1.2 -0.2 0.3-0.3 0.5-0.5 0.6 -1.4 1.8-2.4 3.8-2.8 6.1 -0.4 2.5-0.2 4.9 0.1 7.4C110.7 97.8 111.1 100 111 102.2zM112.3 100.2c-0.2-0.5-0.2-1.1-0.3-1.6 0-0.4 0.2-0.5 0.5-0.6 1.4-0.2 2.7-0.4 4.1-0.7 0.2 0 0.4 0 0.6-0.1 0 0 0 0.1 0.1 0.1 -0.2 0.2-0.3 0.3-0.5 0.5 -1.1 0.8-2.2 1.5-3.3 2.3 -0.2 0.1-0.4 0.3-0.6 0.3C112.6 100.5 112.3 100.3 112.3 100.2zM123.6 92.8c-0.4 3-8.9 11.7-11.5 11.9 0-0.1 0-0.1 0-0.2 0-0.1 0-0.3 0.1-0.4 0.3-1.3 1-2.2 2-3.1 2.7-2.3 5.4-4.7 8-7C122.6 93.7 123 93.3 123.6 92.8zM141.9 79.5c-1.5 1.2-3.1 2.2-4.4 3.6 -3.8 3.7-7.2 7.8-10.3 12.1 -1.8 2.6-3.6 5.2-5.9 7.4 -1.2 1.1-2.4 2.2-3.6 3.3 -2.3 2-4.7 4-7 6 -1.5 1.2-3.2 1.6-5 1.5 -0.3 0-0.6-0.1-0.9-0.2 -0.4-0.2-0.5-0.5-0.3-0.8 0.4-0.5 0.7-1.1 1.2-1.5 1.5-1.2 3-2.5 4.6-3.5 4.1-2.6 7.8-5.7 10.9-9.5 2.1-2.5 4.1-5.1 6.1-7.7 3.6-4.6 7.8-8.3 13.2-10.6 0.6-0.2 1.2-0.5 1.8-0.7 0 0.1 0.1 0.1 0.1 0.2C142.3 79.1 142.1 79.3 141.9 79.5zM127.7 99.8c-0.8 0.7-1.7 1.4-2.4 2.2 -2 2.4-4 4.8-5.9 7.3 -1.1 1.4-2.2 2.6-3.9 3.4 -1 0.4-1.9 0.4-2.9 0.4 -0.1 0-0.4-0.2-0.4-0.3 0-0.1 0.1-0.3 0.2-0.4 0.9-0.8 1.8-1.5 2.7-2.2 3.7-3 7.1-6.3 9.9-10.2 2.2-3.2 4.5-6.3 6.8-9.5 2.9-4 6.3-7.6 10.5-10.2 0.5-0.3 1.1-0.6 1.6-0.8 0 0.1 0.1 0.1 0.1 0.2 -0.2 0.2-0.4 0.3-0.7 0.5 -2.2 1.5-4.1 3.3-5.7 5.4 -1.8 2.3-3.2 4.8-4.5 7.4C131.8 95.6 130.1 97.9 127.7 99.8zM155.5 82c0 0.1 0.1 0.2 0.2 0.2 -0.2 0.3-0.5 0.6-0.8 0.8 -2.2 2-4.4 4-6.7 5.9 -2.9 2.4-5.9 4.6-8.9 6.8 -3.7 2.7-7.1 5.6-9.8 9.3 -1.3 1.8-2.8 3.5-4.2 5.2 -1.4 1.6-3.2 2-5.2 1.9 -0.9 0-1-0.3-0.5-1 0.9-1.4 1.8-2.8 2.7-4.1 3.3-4.6 7.6-7.9 12.7-10.4 5.5-2.7 10.5-6.1 14.9-10.3 1.4-1.3 2.9-2.5 4.4-3.7C154.5 82.4 155 82.3 155.5 82zM163.7 79.9c-0.4 0.4-0.8 0.8-1.3 1.2 -2.5 2-5.1 3.8-7.6 5.9 -2.7 2.3-5.2 4.8-7.9 7.2 -3.3 2.8-6.1 6.1-8.3 9.8 -0.8 1.3-1.7 2.6-2.7 3.8 -0.8 1.1-1.9 2.1-3.3 2.4 -1.8 0.4-3.7 0.7-5.5 1.1 -0.5 0.1-0.6-0.2-0.4-0.6 0.3-0.5 0.5-1 0.9-1.4 1.4-1.7 2.9-3.3 4.3-5 2.7-3.2 5.6-6.1 8.9-8.6 1.8-1.3 3.6-2.6 5.3-4 2.5-2.1 5-4.3 7.5-6.5 2.6-2.2 5.5-3.9 8.7-5.3 0.4-0.2 0.9-0.2 1.4-0.3C163.6 79.8 163.7 79.8 163.7 79.9zM158.9 91.6c-2.3 2.5-4.5 5.1-6.8 7.6 -2.7 3-6 5.2-9.1 7.7 -1 0.8-1.8 1.7-3.1 2 -0.6 0.1-1.2 0.4-1.8 0.5 -0.6 0.1-1.2 0.2-1.9 0.3 0-0.1-0.1-0.1-0.1-0.2 0.1-0.2 0.3-0.4 0.4-0.7 0.7-1.2 1.5-2.4 2.2-3.6 0.5-0.8 1-1.7 1.5-2.5 2.2-3.6 5.2-6.4 8.3-9.2 3.4-2.9 6.7-5.8 10.1-8.6 2.1-1.8 4.3-3.6 6.9-4.6 2.4-0.9 4.9-1.1 7.4-0.5 0.5 0.1 0.9 0.4 1.5 0.6 -0.3 0.2-0.3 0.3-0.5 0.4 -0.4 0.2-0.8 0.5-1.2 0.6C167.3 83.6 162.8 87.2 158.9 91.6zM143.4 108.2c0.2-0.3 0.3-0.5 0.6-0.8 0.4-0.4 0.9-0.9 1.4-1.3 4.6-3.6 8.8-7.6 12.5-12.2 1.9-2.4 4-4.7 6.4-6.6 2-1.6 4.2-3 6.6-3.9 0.5-0.2 1.1-0.2 1.6-0.4 0 0.1 0.1 0.2 0.1 0.2 -0.2 0.1-0.4 0.3-0.5 0.4 -2 1.9-3.9 3.8-5.9 5.7 -2.6 2.5-5.3 4.9-8 7.3 -1.3 1.2-2.8 2.3-4.1 3.5 -2 1.8-3.8 3.9-5.9 5.6 -1.3 1-2.6 1.7-4.1 2.3 -0.2 0.1-0.4 0.1-0.6 0.1C143.4 108.3 143.4 108.2 143.4 108.2zM177.4 82.8c-1.9 0.6-3.2 2-4.3 3.5 -0.9 1.3-1.8 2.5-2.8 3.8 -1.7 2.3-3.6 4.3-5.9 5.9 -1.4 1-2.6 2.3-3.8 3.6 -2.2 2.4-4.7 4.3-7.8 5.3 -0.5 0.2-1.1 0.2-1.7 0.3 0-0.1-0.1-0.1-0.1-0.2 0.1-0.2 0.2-0.5 0.4-0.7 0.6-0.7 1.3-1.4 2-2 3-2.7 6-5.4 9-8.1 3.8-3.5 7.6-7.1 11.3-10.6 0.7-0.7 1.6-1.1 2.6-1.3 0.5-0.1 1-0.1 1.5 0.3C177.6 82.7 177.5 82.8 177.4 82.8zM184.9 85.5c-0.4 0.2-0.7 0.4-1 0.5 -1.5 0.6-3 1.1-4.4 1.7 -2.2 0.9-3.9 2.3-5.4 4.1 -1.7 2.1-2.7 4.5-3.7 7 -0.3 0.7-0.6 1.1-1.3 1.4 -0.4 0.2-0.9 0.4-1.3 0.5 -1.1 0.4-2.2 0.7-3.4 1 -1.2 0.3-2.4 0.7-3.6 1 -0.5 0.1-0.7 0-0.5-0.5 0.2-0.5 0.4-0.9 0.7-1.3 1.4-2 3.2-3.6 5.1-5.1 1.4-1.2 2.7-2.5 3.7-4 1.4-1.9 2.9-3.8 4.3-5.7 1.1-1.4 2.7-2.1 4.4-2.2 1 0 2 0.1 3 0.2C182.9 84.3 183.9 84.7 184.9 85.5zM172.1 98.3c0.4-1.2 0.9-2.5 1.5-3.7 0.7-1.6 1.6-3.1 3-4.2 2.1-1.7 4.5-2.7 7-3.4 3.6-1 7.2-1.8 10.7-2.7 0.2-0.1 0.5 0 0.7 0 0 0.1 0 0.1 0.1 0.2 -0.3 0.2-0.6 0.4-0.9 0.5 -1.6 0.6-3.3 1.1-4.9 1.6 -2.6 0.8-5.3 1.5-7.7 2.9 -1.7 0.9-3.3 1.9-4.6 3.4 -1.1 1.3-1.9 2.8-2.4 4.4 -0.3 0.9-0.9 1.5-1.9 1.7C172.1 99.1 171.9 98.9 172.1 98.3zM203.1 87.9c-3.8 4.4-8.8 6.6-14.4 7.1 -3.5 0.3-7 0.7-10.4 1.9 -0.9 0.3-1.3 0.1-1.2-1 0.2-1.6 0.8-3 2.1-4 0.5-0.4 1.1-0.8 1.6-1.2 2.6-1.7 5.5-2.7 8.4-3.4 3.6-1 7.1-2.2 10.4-4 3.1-1.7 6.4-3.1 9.9-3.9 0.5-0.1 1.1 0 1.6-0.1 0 0.1 0 0.1 0 0.2 -0.1 0.1-0.3 0.2-0.4 0.3 -1.1 1-2.3 1.8-3.3 2.9C205.9 84.4 204.5 86.2 203.1 87.9zM180.1 98.7c0.4-0.3 0.6-0.5 0.9-0.7 1.8-1 3.7-1.4 5.7-1.6 1.5-0.2 3-0.2 4.4-0.5 3.5-0.7 6.6-2.4 9.4-4.6 0.7-0.5 1.4-1.1 2.1-1.7 0 0 0.1 0.1 0.1 0.1 -2.3 3.6-5.5 6.2-9.5 7.6C188.9 98.9 184.7 99.5 180.1 98.7zM179 106.8c-3.4-0.3-6.8-1.1-10.1-1.9 -0.4-0.1-0.8-0.4-1.2-0.6 0.4-0.3 0.7-0.8 1.1-1 1.8-0.8 3.7-1.6 5.6-2.3 1.6-0.6 3.2-1 4.9-1 4.3 0.1 8.6 0 12.7-1.3 0.3-0.1 0.7 0 1.1 0 -0.1 0.3-0.1 0.5-0.2 0.6 -0.6 1.6-1.3 3.1-2.4 4.4 -1 1.2-2.2 2.1-3.7 2.5C184.3 106.9 181.7 107.1 179 106.8zM160.9 105.9c1.4-1.2 4.7-0.8 7.2-0.1C167.4 106.3 161.7 106.4 160.9 105.9zM157.8 106.9c1.5 0 2.9 0 4.4 0 3.2 0 6.3 0.1 9.5 0.1 0.6 0 1.1 0.1 1.6 0.2 0 0.1 0 0.2 0 0.3 -5.8 1.6-11.6 1-17.5 0.1 0.2-0.3 0.5-0.5 0.7-0.6C156.9 107 157.4 106.9 157.8 106.9zM152.5 108.6c0.4-0.1 0.7-0.1 1-0.1 1.9 0.1 3.9 0.2 5.8 0.4 5 0.6 9.9 0.4 14.8-0.5 0.4-0.1 0.8-0.1 1.1-0.1C171.7 111 156.2 111.2 152.5 108.6zM166 116.2c-4.1 0.5-8.3 0.9-12.4 1.3 -2.3 0.2-4.7 0.6-6.9-0.2 -2.7-1-5.3-2-7.9-3 -0.2-0.1-0.4-0.2-0.6-0.3 -0.3-0.2-0.4-0.5 0-0.7 1-0.6 1.9-1.4 3-1.8 4.2-1.4 8.5-2 13-1.1 3.7 0.8 7.5 1.3 11.4 1.1 3.8-0.2 7.5-0.5 11-2 0.7-0.3 1.5-0.5 2.2-0.7 0.1 0.1 0.1 0.1 0.2 0.2 -0.3 0.5-0.6 1-1 1.4 -1.1 1-2.3 2-3.4 3 -1.2 1-2.6 1.9-4.2 2.3C168.9 115.8 167.4 116 166 116.2zM140.5 120.3c-2.7-1-5.3-2.2-7.8-3.8 -1.1-0.7-2.2-1.3-3.6-2 0.4-0.2 0.7-0.3 0.9-0.4 1.2-0.4 2.5-0.5 3.7-0.1 3.1 0.9 6.2 1.9 9.2 2.9 1.9 0.6 3.7 1.3 5.6 1.8 0.5 0.2 1.1 0.2 1.7 0.3 -0.2 0.2-0.3 0.3-0.4 0.4 -0.9 0.7-2 1-3.2 1.2C144.6 120.9 142.5 121 140.5 120.3zM136.8 121.3c-4.1-1.6-7.9-3.6-11.6-5.9 -0.2-0.1-0.4-0.2-0.6-0.3 0.1-0.1 0.1-0.2 0.2-0.3 0.9-0.4 1.8-0.3 2.6 0.1 2.2 0.9 4.4 1.8 6.5 2.8 2.4 1.2 4.7 2.4 7.3 3.2 1.6 0.5 3.2 0.7 4.9 0.4 0.6-0.1 1.3-0.2 1.9-0.3 0 0.1 0 0.2 0.1 0.2 -0.4 0.2-0.8 0.5-1.2 0.6C143.3 122.8 140 122.6 136.8 121.3zM142.2 124.4c-2.9 0.2-5.8 0.5-8.7 0.4 -3.3-0.1-6.3-1.1-9.2-2.7 -3.1-1.6-6.2-3.2-9.3-4.8 -0.3-0.1-0.5-0.3-0.8-0.5 0-0.1 0-0.1 0-0.2 0.3-0.1 0.5-0.2 0.8-0.3 1.7-0.3 3.4-0.6 5.1-0.8 1.6-0.2 3.1 0 4.6 0.7 3.4 1.7 6.8 3.3 10.3 4.9 2.7 1.2 5.6 2 8.6 2 0.5 0 1 0 1.5 0.1 -0.2 0.3-0.5 0.4-0.8 0.5C143.7 124 142.9 124.3 142.2 124.4zM124.8 126.8c-4-0.7-7.5-2.5-10.9-4.6 -1.9-1.2-3.8-2.5-5.7-3.8 -0.6-0.4-1.3-0.7-2-1 0.3-0.1 0.4-0.2 0.6-0.2 1.5 0 3-0.1 4.4 0.1 2.8 0.4 5.4 1.6 7.8 3 4 2.4 8.3 4.2 13 5.2 0.1 0 0.2 0.1 0.4 0.2 -0.5 0.3-0.9 0.6-1.3 0.7C129 127.2 126.9 127.2 124.8 126.8zM125.8 128.7c-1.2 0.1-2.5 0.2-3.7 0 -1.9-0.3-3.8-1-5.7-1.4 -1.8-0.4-3.7-0.7-5.5-1.3 -5.6-1.6-10.6-4.4-15.6-7.2 -0.3-0.2-0.6-0.4-0.8-0.7 0-0.1 0-0.1 0-0.2 0.4-0.1 0.7-0.2 1.1-0.2 1.3-0.1 2.7-0.2 4-0.2 1.1 0 2.2 0.2 3.2 0.5 2.9 0.9 5.6 2.3 8.2 3.8 2.3 1.3 4.6 2.7 7 3.9 2.7 1.3 5.5 2.3 8.5 2.3 0.1 0 0.2 0.1 0.3 0.1 0 0.1 0 0.1 0 0.2C126.5 128.5 126.2 128.7 125.8 128.7zM88.4 118.3c0.2-0.1 0.4-0.2 0.5-0.2 1.3 0.2 2.6 0.3 3.8 0.7 1.8 0.7 3.5 1.8 5.3 2.6 2.8 1.3 5.6 2.7 8.5 3.9 2.3 1 4.8 1.6 7.2 2.5 0.6 0.2 1.2 0.5 1.9 0.7 -0.1 0.1-0.1 0.1-0.2 0.1 -0.1 0-0.2 0.1-0.3 0.1 -2.3 0.6-4.6 1-6.9 0.5 -2.9-0.7-5.6-2-8.1-3.5C96.3 123.3 92.5 120.8 88.4 118.3zM86.5 119c1 0.4 2.1 0.8 3.1 1.3 2.4 1.3 4.7 2.8 7 4.2 3.1 1.9 6 3.8 9.5 5 0.5 0.2 1 0.3 1.5 0.5 0 0.1 0 0.1 0 0.2 -0.5 0-0.9 0.1-1.4 0 -1.8-0.3-3.5-1-5-1.9 -2.9-1.6-5.7-3.3-8.5-4.9 -2.5-1.4-4.9-2.9-7.4-4.3 0 0 0-0.1-0.1-0.3C85.6 118.8 86.1 118.8 86.5 119zM104.7 131.2c-2.2-0.3-4.4-0.4-6.5-0.9 -5.2-1.1-9.9-3.7-14.5-6.2 -2.7-1.4-5.3-3.1-7.9-4.6 -0.2-0.1-0.4-0.3-0.6-0.5 0.2-0.5 0.7-0.5 1.1-0.6 3.2-0.2 6.2 0.5 9.1 1.8 4.3 2 8.4 4.4 12.4 7 2.2 1.4 4.4 2.8 7 3.4 0.3 0.1 0.7 0.2 1 0.3 0 0 0 0.1 0 0.1C105.4 131.1 105 131.3 104.7 131.2zM91.9 130.6c-1.4-0.2-2.7-0.4-4.1-0.8 -3.8-1.1-7-3.3-10-5.8 -1.5-1.2-2.9-2.4-4.4-3.6 -0.4-0.3-0.9-0.6-1.3-0.9 0-0.1 0-0.1 0.1-0.2 0.3 0 0.6 0 0.9 0.2 1.5 0.8 3 1.6 4.4 2.4 3.1 1.8 6.2 3.8 9.3 5.5 1.8 1 3.7 1.7 5.5 2.5 0.3 0.1 0.5 0.3 0.7 0.4 0 0.1 0 0.2 0 0.2C92.7 130.5 92.3 130.6 91.9 130.6zM66.9 119.1c0.4 0.1 0.8 0.1 1.2 0.3 1.3 0.7 2.6 1.3 3.8 2.1 2.3 1.6 4.4 3.4 6.7 5.1 2.5 1.9 5.1 3.7 8.3 4.6 3.2 0.9 6.4 1.4 9.7 1.7 3.2 0.2 6.3 0.6 9.4 1.5 0.7 0.2 1.4 0.5 2 1.2 -0.3-0.1-0.5-0.1-0.7-0.1 -2.3-0.5-4.6-1.1-6.9-1.3 -4.3-0.5-8.6-0.7-12.9-1.2 -4-0.4-7.7-1.7-10.9-4.1 -3.3-2.5-6.1-5.6-9-8.6 -0.2-0.3-0.4-0.6-0.6-0.9C66.9 119.2 66.9 119.1 66.9 119.1zM85.1 136.8c-0.8 0.1-1.7 0.2-2.5 0.1 -3.4-0.3-6.3-1.7-9-3.7 -2-1.5-3.5-3.5-5.1-5.3 -1.8-2.1-3.6-4.3-5.5-6.3 -0.9-1-2-1.8-3-2.7 0 0 0-0.1 0-0.1 0.5 0.2 1.1 0.3 1.6 0.6 1.8 0.9 3.2 2.3 4.4 3.8 1.1 1.4 2.2 2.8 3.3 4.2 1.6 2 3.5 3.6 5.7 4.9 2.7 1.7 5.7 2.7 8.8 3.7 0.6 0.2 1.1 0.4 1.6 0.6C85.4 136.7 85.2 136.8 85.1 136.8zM65.3 125.8c1.7 2 3.4 4.2 5.2 6.1 2.1 2.2 4.6 3.9 7.5 4.8 0.4 0.1 0.8 0.3 1.2 0.4 0 0.1 0 0.1 0 0.2 -0.2 0-0.4 0.1-0.5 0 -1.1-0.3-2.3-0.6-3.4-1.1 -2.2-0.9-4-2.5-5.7-4 -2.3-2.1-3.8-4.8-5.4-7.4 0 0 0-0.1 0.1-0.2C64.6 125 64.9 125.4 65.3 125.8zM71.2 138.4c-1.5-0.6-3-1.3-4.3-2.2 -2.9-2-5.4-4.6-7.7-7.4 -1.6-1.9-3.8-4.7-6.1-7.5 -0.9-1.1-2.1-2.1-3.2-3.2 0.2-0.1 0.5-0.2 0.7-0.2 1.4 0 2.8 0 4.3 0.1 1.5 0.1 2.8 0.7 4 1.7 1.5 1.3 2.8 2.8 3.9 4.4 1.7 2.6 3.4 5.1 5.2 7.6 0.9 1.2 2 2.3 3.2 3.3 1 0.9 2.2 1.5 3.3 2.2 0.3 0.2 0.5 0.4 0.9 0.7C73.8 138.6 72.5 138.9 71.2 138.4zM57.2 133c-2.5-3.7-5.2-7.2-8.4-10.3 -1.7-1.6-3.2-3.4-5.2-4.6 -0.1-0.1-0.1-0.2-0.3-0.4 0.3-0.1 0.5-0.2 0.7-0.2 1.3-0.1 2.4 0.3 3.5 1 1.7 1.1 3.2 2.5 4.5 4.1 1.2 1.5 2.4 3.1 3.7 4.6 1.9 2.2 3.7 4.4 6 6.3 2.8 2.3 5.7 4.5 9.1 6.1 -2.5 0.7-5 0.6-7.4-0.6C60.8 137.6 58.8 135.4 57.2 133zM45.4 120.7c2.7 2.4 5.1 5.1 7.2 8 0.9 1.3 1.8 2.5 2.7 3.8 -0.1 0.1-0.1 0.1-0.2 0.2 -0.3-0.3-0.7-0.5-1-0.9 -1.4-1.6-2.9-3.3-4.2-5 -2.7-3.6-5.8-6.9-10-8.8 -0.2-0.1-0.4-0.3-0.5-0.4 0-0.1 0.1-0.1 0.1-0.2 0.5 0.1 0.9 0.2 1.4 0.4C42.6 118.5 44.1 119.5 45.4 120.7zM44.5 127.1c-1.3-2.1-2.5-4.4-3.8-6.5 -0.2-0.4-0.5-0.7-0.7-1 0 0 0.1-0.1 0.1-0.1 0.3 0.1 0.6 0.1 0.8 0.2 0.8 0.5 1.7 0.9 2.5 1.5 3.1 2.2 5.4 5.2 7.7 8.2 1.4 1.8 3 3.5 4.5 5.2 0.1 0.2 0.3 0.3 0.5 0.6 -0.5 0-0.8 0-1.1-0.1 -0.7-0.2-1.4-0.3-2-0.6C49.4 132.9 46.6 130.4 44.5 127.1zM33.3 118.8c0.2 0.5 0.4 1.1 0.5 1.6 0.5 2.2-0.1 4.3-0.9 6.4 -0.7 1.7-1.4 3.4-2.1 5.1 -0.1 0.2-0.2 0.3-0.2 0.5 0 0-0.1 0-0.1 0 0.1-0.3 0.1-0.6 0.2-0.8 0.5-1.6 1.1-3.2 1.7-4.8 0.9-2.4 1.4-4.8 0.9-7.3 0-0.2-0.1-0.4-0.1-0.5C33.2 118.9 33.2 118.9 33.3 118.8zM34.9 116.9c0.5 0.2 1.1 0.2 1.4 0.5 1.1 1 2.4 2 3.2 3.2 1.3 1.9 2.5 3.9 3.6 5.9 2.6 4.7 5.5 9 9.9 12.2 0.2 0.1 0.3 0.3 0.5 0.6 -1.2-0.1-2.2-0.5-3.1-1.1 -2.8-1.8-5.1-4-7.1-6.6 -2.9-3.8-5.1-7.9-7.3-12.1 -0.4-0.8-0.8-1.6-1.2-2.4C34.8 117 34.8 116.9 34.9 116.9zM17.6 112.1c4.4 0.2 8.8 0.5 13.1 0.8 1.8 0.1 3.6 0 5.4 0.1 4.9 0.3 9.9 0.7 14.8 1 6.4 0.4 12.7 0.8 19.1 1 8.1 0.2 16.1 0.2 24.2 0.1 11.9-0.1 23.8-0.8 35.6-3 6.4-1.2 12.7-2.3 18.9-4.2 5-1.5 10.1-3.1 15.1-4.6 3.5-1.1 7.1-2.2 10.4-3.8 1.2-0.6 2.5-1.1 3.8-1.7 0.4-0.2 0.8-0.2 1.2-0.3 -0.1 0.2-0.2 0.3-0.4 0.4 -2.5 1.1-5 2.3-7.6 3.3 -8.7 3.3-17.6 6.2-26.6 8.4 -4.7 1.2-9.4 2.4-14.2 3.4 -3.9 0.8-7.8 1.5-11.8 2.1 -3.8 0.6-7.5 1.1-11.3 1.3 -6.1 0.4-12.2 0.6-18.3 0.8 -15 0.5-30 0.7-45-0.6 -4.5-0.4-8.9-0.8-13.4-1.1 -4.2-0.3-8.3-0.4-12.5-0.5 -3 0-5.9-0.5-8.5-1.9 -0.7-0.4-1.4-0.7-1.8-1.6 0.4 0 0.8 0 1.1 0C11.9 111.8 14.8 111.9 17.6 112.1zM30.9 105.7c1.6-2.3 3.8-4.1 6.2-5.6 0.2-0.2 0.5-0.2 0.8-0.3 0.1 0.1 0.1 0.1 0.2 0.2 -0.7 1.2-1.4 2.4-2.3 3.4 -2 2.2-3.5 4.7-4.7 7.4 -0.1 0.3-0.3 0.5-0.5 0.7 -0.3-0.3-0.6-0.5-0.8-0.8 -0.1-0.2-0.1-0.4-0.1-0.6C29.5 108.5 30 107.1 30.9 105.7zM42.8 92.1c-0.1 0.4-0.1 0.7-0.2 0.9 -0.4 1.2-1.1 2.3-2.1 3.1 -1.6 1.5-3.3 2.9-5 4.2 -2.7 2.1-5.1 4.5-6.7 7.6 -0.2 0.4-0.6 0.8-1 1.3 -0.4-0.9-0.4-1.6-0.1-2.2 0.6-1.2 1.2-2.6 2.1-3.6 1.3-1.5 2.8-2.7 4.3-4 2.9-2.3 5.8-4.5 8.3-7.2C42.6 92.2 42.6 92.2 42.8 92.1z"/>
</svg>
