<svg xmlns="http://www.w3.org/2000/svg" xmlns:xlink="http://www.w3.org/1999/xlink" version="1.1" width="32" height="32" viewBox="0 0 32 32">
  <path d="M20.197 0.879c-6.023 0-10.924 4.9-10.924 10.924 0 1.548 0.328 3.02 0.912 4.356l-9.306 9.306c-1.172 1.172-1.172 3.071 0 4.243l1.414 1.414c1.172 1.172 3.071 1.172 4.243 0l9.306-9.306c1.336 0.583 2.807 0.912 4.355 0.912 6.024 0 10.925-4.9 10.925-10.924 0-6.025-4.901-10.925-10.925-10.925zM20.197 18.727c-3.817 0-6.924-3.106-6.924-6.924s3.106-6.924 6.924-6.924c3.818 0 6.925 3.106 6.925 6.924s-3.107 6.924-6.925 6.924z" fill="#000000"/>
</svg>
