<?xml version="1.0" encoding="utf-8"?>
<!-- Generated by IcoMoon.io -->
<!DOCTYPE svg PUBLIC "-//W3C//DTD SVG 1.1//EN" "http://www.w3.org/Graphics/SVG/1.1/DTD/svg11.dtd">
<svg version="1.1" xmlns="http://www.w3.org/2000/svg" xmlns:xlink="http://www.w3.org/1999/xlink" width="32" height="32" viewBox="0 0 32 32">
<g>
</g>
	<path d="M0 5c0 1.7 1.3 3 3 3h26c1.7 0 3-1.3 3-3v-2c0-1.7-1.3-3-3-3h-26c-1.7 0-3 1.3-3 3v2z" fill="#000000" />
	<path d="M0 17c0 1.7 1.3 3 3 3h26c1.7 0 3-1.3 3-3v-2c0-1.7-1.3-3-3-3h-26c-1.7 0-3 1.3-3 3v2z" fill="#000000" />
	<path d="M0 29c0 1.7 1.3 3 3 3h26c1.7 0 3-1.3 3-3v-2c0-1.7-1.3-3-3-3h-26c-1.7 0-3 1.3-3 3v2z" fill="#000000" />
</svg>
