<?xml version="1.0" encoding="UTF-8" standalone="no"?>
<!-- Created with Inkscape (http://www.inkscape.org/) -->

<svg
   xmlns:dc="http://purl.org/dc/elements/1.1/"
   xmlns:cc="http://creativecommons.org/ns#"
   xmlns:rdf="http://www.w3.org/1999/02/22-rdf-syntax-ns#"
   xmlns:svg="http://www.w3.org/2000/svg"
   xmlns="http://www.w3.org/2000/svg"
   xmlns:sodipodi="http://sodipodi.sourceforge.net/DTD/sodipodi-0.dtd"
   xmlns:inkscape="http://www.inkscape.org/namespaces/inkscape"
   width="1212.12"
   height="132.25"
   id="svg19642"
   version="1.1"
   inkscape:version="0.48.1 "
   sodipodi:docname="Neues Dokument 2">
  <defs
     id="defs19644">
    <clipPath
       id="clip95">
      <path
         inkscape:connector-curvature="0"
         d="m 0,343.375 978.75,0 0,-143.75 -978.75,0 0,143.75 z m 0,0"
         id="path367" />
    </clipPath>
  </defs>
  <sodipodi:namedview
     id="base"
     pagecolor="#ffffff"
     bordercolor="#666666"
     borderopacity="1.0"
     inkscape:pageopacity="0.0"
     inkscape:pageshadow="2"
     inkscape:zoom="0.74368367"
     inkscape:cx="606.05999"
     inkscape:cy="66.125003"
     inkscape:document-units="px"
     inkscape:current-layer="g9435"
     showgrid="false"
     fit-margin-top="0"
     fit-margin-left="0"
     fit-margin-right="0"
     fit-margin-bottom="0"
     inkscape:window-width="1024"
     inkscape:window-height="708"
     inkscape:window-x="-4"
     inkscape:window-y="-4"
     inkscape:window-maximized="1" />
  <metadata
     id="metadata19647">
    <rdf:RDF>
      <cc:Work
         rdf:about="">
        <dc:format>image/svg+xml</dc:format>
        <dc:type
           rdf:resource="http://purl.org/dc/dcmitype/StillImage" />
        <dc:title></dc:title>
      </cc:Work>
    </rdf:RDF>
  </metadata>
  <g
     inkscape:label="Ebene 1"
     inkscape:groupmode="layer"
     id="layer1"
     transform="translate(247.51435,-455.92596)">
    <g
       clip-path="url(#clip95)"
       clip-rule="nonzero"
       id="g9435"
       transform="matrix(1.25,0,0,1.25,-253.12672,211.39422)">
      <path
         style="fill:#211e1e;fill-opacity:1;fill-rule:nonzero;stroke:none"
         d="M 76.984375,202.52344 75.089844,201.625 c -2.011719,4.39453 -6.40625,6.89453 -11.210938,6.89453 -11.796875,0 -18.789062,-5.48828 -31.484375,-5.48828 -7.304687,0 -18.203125,6.48437 -23.90625,18.98437 l 1.992188,0.80079 c 3.515625,-7.08985 8.398437,-9.88282 13.105469,-9.88282 5.605468,0 11.09375,0.9961 16.503906,2.38282 -13.007813,5.11718 -27.597656,15.60546 -27.597656,35.60546 0,18.39844 14.902343,30.80079 29.804687,30.80079 16.796875,0 25.78125,-11.28907 30.996094,-21.28907 l -1.601563,-0.80078 c -2.5,3.88672 -5.097656,7.5 -10.898437,10.19531 l 0,-52.5 c 7.5,-2.5 11.992187,-7.69531 16.191406,-14.80468 z M 50.1875,217.93359 c -1.308594,0.80078 -2.695312,1.79688 -5.292969,3.78907 -3.90625,2.91015 -5.507812,4.19921 -5.507812,10.41015 0,22.08985 0,4.88281 0,27.1875 0,7.20703 -0.507813,7.30469 -3.300781,9.29688 -5.507813,-3.69141 -10.703126,-10.80078 -10.703126,-22.5 0,-13.08594 5.703126,-24.29688 17.207032,-30.09766 2.695312,0.80078 5.488281,1.50391 7.597656,1.91406 z m 8.203125,52.69532 c -2.597656,0.89843 -6.210937,1.28906 -9.804687,1.28906 -4.003907,0 -7.402344,-0.58594 -10.800782,-2.28516 1.503906,-0.89844 4.003906,-2.10937 7.792969,-4.90234 4.003906,-3.00781 5.507813,-4.29688 5.507813,-10.50781 0,-22.08985 0,-4.90235 0,-27.20704 0,-5.89843 0.292968,-7.28515 1.308593,-8.6914 1.699219,0 4.394531,0 5.996094,-0.50781 l 0,52.8125 z m 0,0"
         id="path9437"
         inkscape:connector-curvature="0" />
      <path
         style="fill:#211e1e;fill-opacity:1;fill-rule:nonzero;stroke:none"
         d="m 117.1875,268.61719 -1.21094,-1.19141 c -0.89843,0.89844 -2.28515,2.40234 -3.28125,2.40234 -1.8164,0 -3.80859,-2.40234 -3.80859,-2.40234 l 0,-29.70703 4.70703,-4.78516 -1.30859,-1.21093 -3.69141,3.71093 -10,-8.71093 -0.605469,0 -10.898437,10.29296 -0.09766,-0.0977 0,-26.89453 c 2.402343,2.10937 3.984374,2.5 6.992187,2.5 4.707031,0 10.000009,-5.89844 13.300789,-11.60157 l -1.60157,-0.80078 c -3.10546,4.51172 -5.09765,4.51172 -8.496094,4.51172 -1.699219,0 -5.703125,-1.69922 -6.894531,-3.30078 l -0.703125,0 c 0,0 -8.007813,6.38672 -15.898438,10.80078 l 0,1.09375 c 0,0 2.1875,0.29297 2.1875,1.50391 l 0,54.0039 c 0,0.6836 -1.894531,1.48438 -1.894531,1.48438 l 0,0.89844 10.097656,8.00781 0.605469,0 7.890625,-8.00781 -0.195313,-1.09375 c -3.300781,0 -5.195312,-2.5 -5.390624,-3.00782 l 0,-26.89453 4.785156,-4.19922 c 2.714844,1.69922 6.015625,5.09766 6.015625,5.09766 l 0,27.8125 c 0,0.99609 -1.308594,1.48438 -1.308594,1.48438 l 0,0.91796 9.492189,7.89063 0.60547,0 10.60547,-10.50781 z m 0,0"
         id="path9439"
         inkscape:connector-curvature="0" />
      <path
         style="fill:#211e1e;fill-opacity:1;fill-rule:nonzero;stroke:none"
         d="m 151.29297,244.22266 0,-0.80079 -11.89453,-17.1875 -1.21094,0 -20,14.39454 0,0.89843 c 0,0 2.10938,0.80078 2.10938,1.50391 l 0,22.98828 c 0,0.60547 -1.91407,1.11328 -1.91407,1.11328 l 0,0.89844 14.19922,11.09375 0.80078,0 15.60547,-13.80859 -1.40625,-1.58204 -8.39844,6.99219 c -2.1875,-1.40625 -7.79297,-6.21094 -7.79297,-6.21094 l 0,-7.89062 19.90235,-12.40234 z m -10.19531,3.80859 -9.70704,6.28906 0,-18.49609 0.89844,-0.70313 8.8086,12.91016 z m 0,0"
         id="path9441"
         inkscape:connector-curvature="0" />
      <path
         style="fill:#211e1e;fill-opacity:1;fill-rule:nonzero;stroke:none"
         d="m 248.28125,228.03125 c 0,-11.79688 -14.90234,-21.69922 -16.28906,-27.5 l -1.21094,0 c 0,0 -10.70313,7.40234 -16.99219,11.99219 -3.90625,2.91015 -5.70312,4.70703 -5.70312,10.89843 0,22.20704 0,61.60157 0,61.60157 l -0.60547,0.29297 c -1.28906,-1.79688 -2.79297,-3.98438 -5.29297,-5.89844 0,-10.19531 0,-45.6836 0,-64.6875 0,-6.11328 -1.21094,-6.69922 -5.09766,-9.60938 -0.99609,-0.80078 -3.80859,-2.69531 -3.80859,-2.69531 l -0.70313,0 c -1.48437,1.09375 -3.98437,1.89453 -6.1914,1.89453 -3.4961,0 -6.19141,-0.0977 -9.29688,-4.6875 l -1.40625,0.80078 c 2.40235,6.79688 6.69922,12.59766 14.80469,12.59766 l 0,12.5 c -0.70312,0 -1.60156,0 -2.5,0 -5.41016,0 -9.90234,6.48437 -9.90234,11.79687 l 1.5039,0.0977 c 0.89844,-3.20312 3.69141,-4.29687 6.79688,-4.29687 1.89453,0 3.30078,0.0977 4.10156,0.48828 l 0,8.39843 c -0.60547,0 -1.40625,0 -2.20703,0 -5.39063,0 -9.90234,6.50391 -9.90234,11.81641 l 1.5039,0.0977 c 0.89844,-3.20313 3.71094,-4.29688 6.79688,-4.29688 1.69922,0 3.10547,0.0977 3.80859,0.39063 l 0,26.30859 c -9.29687,0.68359 -14.00391,10.39063 -14.00391,15.58594 l 1.50391,0.21484 c 1.19141,-4.19922 3.90625,-7.5 10.19531,-7.5 7.01172,0 11.09375,5.48828 12.69532,7.5 l 1.01562,0 c 0,0 11.09375,-8.00781 20.80078,-13.51562 l 0,-0.9961 c 0,0 -2.71484,-0.60547 -2.71484,-1.28906 0,0 0,-38.80859 0,-59.00391 0,-6.79687 1.79687,-7.20703 3.20312,-8.30078 0.89844,2.40235 2.30469,5.19532 4.10157,7.59766 l 0,33.90625 c -2.5,0.58594 -5.39063,1.99219 -5.39063,5.58594 0,3.00781 2.28516,5.21484 5.68359,6.69922 l 1.40625,-0.48829 c -0.0977,-0.50781 -0.19531,-0.99609 -0.19531,-1.40625 0,-5.09765 1.19141,-7.89062 4.49219,-10.48828 7.40234,-5.91797 15,-12.01172 15,-22.40234 z m -9.80469,8.78906 c 0,5.9961 -3.18359,10.60547 -8.39844,13.00781 -0.19531,0.0977 -0.29296,0.0977 -0.48828,0.19532 l 0,-30.60547 0.19532,-0.19531 c 4.19921,5.70312 8.6914,10.89843 8.6914,17.59765 z m 0,0"
         id="path9443"
         inkscape:connector-curvature="0" />
      <path
         style="fill:#211e1e;fill-opacity:1;fill-rule:nonzero;stroke:none"
         d="m 294.78906,268.61719 -1.21094,-1.19141 c -0.89843,0.89844 -2.28515,2.40234 -3.28125,2.40234 -1.8164,0 -3.80859,-2.40234 -3.80859,-2.40234 l 0,-29.70703 4.70703,-4.78516 -1.30859,-1.21093 -3.69141,3.71093 -10,-8.71093 -0.60547,0 -10.89843,10.29296 -0.0977,-0.0977 0,-26.89453 c 2.40234,2.10937 3.98437,2.5 6.99219,2.5 4.70703,0 10,-5.89844 13.30078,-11.60157 l -1.60156,-0.80078 c -3.10547,4.51172 -5.09766,4.51172 -8.4961,4.51172 -1.69922,0 -5.70312,-1.69922 -6.89453,-3.30078 l -0.70312,0 c 0,0 -8.00782,6.38672 -15.89844,10.80078 l 0,1.09375 c 0,0 2.1875,0.29297 2.1875,1.50391 l 0,54.0039 c 0,0.6836 -1.89453,1.48438 -1.89453,1.48438 l 0,0.89844 10.09765,8.00781 0.60547,0 7.89063,-8.00781 -0.19532,-1.09375 c -3.30078,0 -5.19531,-2.5 -5.39062,-3.00782 l 0,-26.89453 4.78516,-4.19922 c 2.71484,1.69922 6.01562,5.09766 6.01562,5.09766 l 0,27.8125 c 0,0.99609 -1.30859,1.48438 -1.30859,1.48438 l 0,0.91796 9.49218,7.89063 0.60547,0 10.60547,-10.50781 z m 0,0"
         id="path9445"
         inkscape:connector-curvature="0" />
      <path
         style="fill:#211e1e;fill-opacity:1;fill-rule:nonzero;stroke:none"
         d="m 312.77734,213.51953 0,-0.89844 c -3.78906,-2.98828 -7.5,-7.40234 -7.5,-7.40234 l -0.89843,0 c -2.98829,4.41406 -7.1875,7.5 -7.1875,7.5 l 0,0.89844 c 3.49609,2.71484 7.5,7.20703 7.5,7.20703 l 0.89843,0 c 2.98828,-4.00391 7.1875,-7.30469 7.1875,-7.30469 z m 6.11328,55.41016 -0.99609,-1.3086 c -0.89844,0.80078 -2.20703,2.10938 -3.00781,2.10938 -1.89453,0 -4.00391,-2.30469 -4.00391,-2.30469 l 0,-30.60547 4.70703,-4.58984 -1.30859,-1.40625 -3.69141,3.6914 -8.80859,-7.89062 -0.58594,0 -9.19922,9.39453 1.19141,1.30859 1.60156,-1.5039 c 2.30469,1.5039 5,4.29687 5,4.29687 l 0,28.61328 c 0,0.9961 -1.79687,1.48438 -1.79687,1.48438 l 0,0.89844 10.39062,8.00781 0.60547,0 9.90234,-10.19531 z m 0,0"
         id="path9447"
         inkscape:connector-curvature="0" />
      <path
         style="fill:#211e1e;fill-opacity:1;fill-rule:nonzero;stroke:none"
         d="m 342.27734,269.125 -1.1914,-1.30859 c -0.89844,0.80078 -1.89453,1.60156 -2.69532,1.60156 -1.40625,0 -3.80859,-2.08985 -3.80859,-2.08985 l 0,-60.3125 c 0,-2.59765 3.61328,-5.19531 3.61328,-5.19531 l -1.11328,-1.38672 c 0,0 -10.70312,7.79297 -17.69531,11.99219 l 0.70312,1.60156 3.30078,-1.69922 0.0977,0.19532 0,56.21093 c 0,0.9961 -1.69922,1.48438 -1.69922,1.48438 l 0,0.89844 10.29297,8.00781 0.60547,0 9.58984,-10 z m 0,0"
         id="path9449"
         inkscape:connector-curvature="0" />
      <path
         style="fill:#211e1e;fill-opacity:1;fill-rule:nonzero;stroke:none"
         d="m 383.58203,269.22266 -0.99609,-1.28907 c -0.89844,0.80078 -1.99219,1.79688 -2.89063,1.79688 -1.91406,0 -4.41406,-3.10547 -4.41406,-3.10547 l 0,-29.90234 4.51172,-4.29688 -1.3086,-1.40625 -3.20312,2.91016 -7.89063,-7.20703 -0.60546,0 c -1.89454,2.5 -6.69922,5.29296 -8.30079,5.29296 -2.89062,0 -5.80078,-1.69921 -6.79687,-5.29296 l -0.89844,0 -6.69922,9.60937 0,0.39063 c 1.09375,2.01171 2.89063,4.70703 6.99219,4.70703 3.39844,0 6.21094,-4.41407 8.10547,-6.3086 l 5,3.8086 0,6.79687 c -10.99609,0.80078 -20.80078,6.99219 -20.80078,18.30078 0,7.89063 4.90234,13.20313 11.1914,15.09766 l 0.80079,0 8.61328,-7.79297 0.19531,0 8.59375,7.79297 0.60547,0 10.19531,-9.90234 z m -19.39453,-0.29297 c 0,0 -1.21094,1.28906 -3.90625,1.28906 -3.20313,0 -5.80078,-4.39453 -5.80078,-10.89844 0,-6.5039 3.30078,-10.29297 9.70703,-11.5039 l 0,21.11328 z m 0,0"
         id="path9451"
         inkscape:connector-curvature="0" />
      <path
         style="fill:#211e1e;fill-opacity:1;fill-rule:nonzero;stroke:none"
         d="m 423.58203,232.42578 -1.28906,-1.40625 -3.71094,3.61328 c -5.19531,-5.60547 -24.6875,-26.60156 -29.58984,-33.51562 l -0.41016,0 c -0.99609,1.11328 -1.99219,2.71484 -1.99219,4.0039 0,1.60157 0.19532,2.69532 1.40625,4.19922 -3.80859,0.3125 -8.61328,3.00781 -8.61328,3.00781 l 0,1.09375 c 3.8086,0 6.11328,1.50391 8.10547,3.59375 2.30469,2.40235 7.20703,7.71485 11.60156,12.71485 l -14.70703,8.59375 0,0.99609 c 0,0 1.91406,0.70313 1.91406,1.40625 l 0,24.80469 c 0,0.70312 -1.91406,1.19141 -1.91406,1.19141 l 0,0.89843 14.80469,11.50391 1.40625,0 20.58594,-13.80859 0,-0.89844 c 0,0 -2.28516,-0.58594 -2.28516,-1.28906 l 0,-25.9961 4.6875,-4.70703 z m -15.99609,38.49609 -0.9961,0.60547 -9.19922,-7.69531 0,-28.71094 c 0,-1.79687 1.69922,-2.98828 3.10547,-3.88672 4.19922,4.58985 7.08985,8.1836 7.08985,8.1836 l 0,31.5039 z m 0,0"
         id="path9453"
         inkscape:connector-curvature="0" />
      <path
         style="fill:#211e1e;fill-opacity:1;fill-rule:nonzero;stroke:none"
         d="m 458.58984,244.22266 0,-0.80079 -11.89453,-17.1875 -1.21094,0 -20,14.39454 0,0.89843 c 0,0 2.10938,0.80078 2.10938,1.50391 l 0,22.98828 c 0,0.60547 -1.91406,1.11328 -1.91406,1.11328 l 0,0.89844 14.19922,11.09375 0.80078,0 15.60547,-13.80859 -1.40625,-1.58204 -8.39844,6.99219 c -2.1875,-1.40625 -7.79297,-6.21094 -7.79297,-6.21094 l 0,-7.89062 19.90234,-12.40234 z m -10.19531,3.80859 -9.70703,6.28906 0,-18.49609 0.89844,-0.70313 8.80859,12.91016 z m 0,0"
         id="path9455"
         inkscape:connector-curvature="0" />
      <path
         style="fill:#211e1e;fill-opacity:1;fill-rule:nonzero;stroke:none"
         d="m 481.27734,269.125 -1.1914,-1.30859 c -0.89844,0.80078 -1.89453,1.60156 -2.69532,1.60156 -1.40625,0 -3.80859,-2.08985 -3.80859,-2.08985 l 0,-60.3125 c 0,-2.59765 3.61328,-5.19531 3.61328,-5.19531 l -1.11328,-1.38672 c 0,0 -10.70312,7.79297 -17.69531,11.99219 l 0.70312,1.60156 3.30078,-1.69922 0.0977,0.19532 0,56.21093 c 0,0.9961 -1.69922,1.48438 -1.69922,1.48438 l 0,0.89844 10.29297,8.00781 0.60547,0 9.58984,-10 z m 0,0"
         id="path9457"
         inkscape:connector-curvature="0" />
      <path
         style="fill:#211e1e;fill-opacity:1;fill-rule:nonzero;stroke:none"
         d="m 524.59375,233.32422 -1.30859,-1.40625 -3.69141,3.71094 -10,-8.90625 -0.60547,0 -9.80469,9.19921 c -1.40625,-3.78906 -9.49218,-9.29687 -9.49218,-9.29687 l -0.60547,0 -9.90235,10.60547 1.09375,1.1914 c 0.91797,-0.80078 2.20703,-2.40234 3.20313,-2.40234 1.40625,0 3.80859,2.30469 3.80859,2.30469 l 0,29.60937 c -4.70703,1.99219 -7.59765,6.19141 -7.59765,11.28907 l 1.1914,0.19531 c 1.21094,-3.69141 4.00391,-3.98438 6.40625,-4.19922 l 0,17.40234 c 0,1.69922 -2.20703,3.4961 -2.20703,3.4961 l 0.70313,1.30859 c 0,0 7.20703,-5.09766 16.40625,-11.19141 l -0.70313,-1.5039 -3.10547,1.5039 -0.0976,-0.11718 0,-8.98438 0.0976,-0.11719 c 1.79688,0.50782 4.51172,2.10938 4.51172,2.10938 l 1.19141,0 17.69531,-12.20703 0,-0.9961 c 0,0 -1.89453,-0.60546 -1.89453,-1.28906 l 0,-26.69922 4.70703,-4.60937 z m -15.80078,38.30078 -0.89844,0.50781 c -3.90625,-3.39844 -6.30859,-4.10156 -9.51172,-5 l 0,-27.8125 4.29688,-3.49609 c 2.40234,1.40625 6.11328,5.09765 6.11328,5.09765 l 0,30.70313 z m 0,0"
         id="path9459"
         inkscape:connector-curvature="0" />
      <path
         style="fill:#211e1e;fill-opacity:1;fill-rule:nonzero;stroke:none"
         d="m 569.6875,268.61719 -1.21094,-1.19141 c -0.89844,0.89844 -2.28515,2.40234 -3.28125,2.40234 -1.8164,0 -3.80859,-2.40234 -3.80859,-2.40234 l 0,-29.70703 4.70703,-4.78516 -1.30859,-1.21093 -3.69141,3.71093 -10,-8.71093 -0.60547,0 -10.89844,10.29296 -0.0976,-0.0977 0,-26.89453 c 2.40234,2.10937 3.98437,2.5 6.99218,2.5 4.70704,0 10,-5.89844 13.30079,-11.60157 l -1.60157,-0.80078 c -3.10547,4.51172 -5.09765,4.51172 -8.49609,4.51172 -1.69922,0 -5.70313,-1.69922 -6.89453,-3.30078 l -0.70313,0 c 0,0 -8.00781,6.38672 -15.89843,10.80078 l 0,1.09375 c 0,0 2.1875,0.29297 2.1875,1.50391 l 0,54.0039 c 0,0.6836 -1.89454,1.48438 -1.89454,1.48438 l 0,0.89844 10.09766,8.00781 0.60547,0 7.89062,-8.00781 -0.19531,-1.09375 c -3.30078,0 -5.19531,-2.5 -5.39062,-3.00782 l 0,-26.89453 4.78515,-4.19922 c 2.71485,1.69922 6.01563,5.09766 6.01563,5.09766 l 0,27.8125 c 0,0.99609 -1.3086,1.48438 -1.3086,1.48438 l 0,0.91796 9.49219,7.89063 0.60547,0 10.60547,-10.50781 z m 0,0"
         id="path9461"
         inkscape:connector-curvature="0" />
      <path
         style="fill:#211e1e;fill-opacity:1;fill-rule:nonzero;stroke:none"
         d="m 587.67969,213.51953 0,-0.89844 c -3.78907,-2.98828 -7.5,-7.40234 -7.5,-7.40234 l -0.89844,0 c -2.98828,4.41406 -7.1875,7.5 -7.1875,7.5 l 0,0.89844 c 3.49609,2.71484 7.5,7.20703 7.5,7.20703 l 0.89844,0 c 2.98828,-4.00391 7.1875,-7.30469 7.1875,-7.30469 z m 6.11328,55.41016 -0.9961,-1.3086 c -0.89843,0.80078 -2.20703,2.10938 -3.00781,2.10938 -1.89453,0 -4.0039,-2.30469 -4.0039,-2.30469 l 0,-30.60547 4.70703,-4.58984 -1.3086,-1.40625 -3.6914,3.6914 -8.8086,-7.89062 -0.58593,0 -9.19922,9.39453 1.1914,1.30859 1.60157,-1.5039 c 2.30468,1.5039 5,4.29687 5,4.29687 l 0,28.61328 c 0,0.9961 -1.79688,1.48438 -1.79688,1.48438 l 0,0.89844 10.39063,8.00781 0.60546,0 9.90235,-10.19531 z m 0,0"
         id="path9463"
         inkscape:connector-curvature="0" />
      <path
         style="fill:#211e1e;fill-opacity:1;fill-rule:nonzero;stroke:none"
         d="m 635.28516,269.22266 -0.9961,-1.28907 c -0.89844,0.80078 -1.99219,1.79688 -2.89062,1.79688 -1.91407,0 -4.41407,-3.10547 -4.41407,-3.10547 l 0,-29.90234 4.51172,-4.29688 -1.30859,-1.40625 -3.20313,2.91016 -7.89062,-7.20703 -0.60547,0 c -1.89453,2.5 -6.69922,5.29296 -8.30078,5.29296 -2.89063,0 -5.80078,-1.69921 -6.79688,-5.29296 l -0.89843,0 -6.69922,9.60937 0,0.39063 c 1.09375,2.01171 2.89062,4.70703 6.99219,4.70703 3.39843,0 6.21093,-4.41407 8.10546,-6.3086 l 5,3.8086 0,6.79687 c -10.99609,0.80078 -20.80078,6.99219 -20.80078,18.30078 0,7.89063 4.90235,13.20313 11.19141,15.09766 l 0.80078,0 8.61328,-7.79297 0.19531,0 8.59375,7.79297 0.60547,0 10.19532,-9.90234 z m -19.39454,-0.29297 c 0,0 -1.21093,1.28906 -3.90625,1.28906 -3.20312,0 -5.80078,-4.39453 -5.80078,-10.89844 0,-6.5039 3.30078,-10.29297 9.70703,-11.5039 l 0,21.11328 z m 0,0"
         id="path9465"
         inkscape:connector-curvature="0" />
      <path
         style="fill:#211e1e;fill-opacity:1;fill-rule:nonzero;stroke:none"
         d="m 704.29297,201.72266 -0.89844,-1.28907 c 0,0 -9.80469,6.79688 -16.81641,11.19141 l 0,1.09375 c 0,0 2.30469,0.50781 2.30469,1.30859 l 0,61.60157 -2.5,1.69921 c -1.1914,-0.89843 -3.59375,-2.69531 -3.59375,-5.80078 0,0 0,-34.51172 0,-56.69922 0,-6.09375 -1.30859,-6.79687 -5.19531,-9.70703 -1.01563,-0.80078 -3.80859,-2.69531 -3.80859,-2.69531 l -0.70313,0 c -1.50391,1.09375 -3.88672,2.08984 -6.09375,2.08984 -3.49609,0 -5.99609,-0.29296 -8.90625,-4.88281 l -1.38672,0.80078 c 2.28516,6.79688 6.28906,12.69532 14.39453,12.69532 l 0,11.38671 c -0.70312,0 -1.40625,0 -2.30468,0 -5.39063,0 -10,6.50391 -10,11.81641 l 1.40625,0.0977 c 0.89843,-3.20313 3.88671,-4.29688 6.99218,-4.29688 1.89453,0 3.20313,0.0977 3.90625,0.39063 l 0,8.49609 c -0.60547,0 -1.21093,0 -2.01172,0 -5.39062,0 -10,6.50391 -10,11.79688 l 1.40625,0.11718 c 0.89844,-3.20312 3.90625,-4.3164 7.01172,-4.3164 1.58203,0 2.79297,0.11718 3.59375,0.3125 l 0,14.90234 c 0,0.68359 -2.40234,1.38672 -2.40234,1.38672 l 0,1.01562 c 5.89844,3.39844 13.59375,10.58594 15.50781,12.59766 l -3.61328,2.08984 c -5.19531,-4.39453 -9.90234,-10.19531 -18.49609,-10.19531 -11.09375,0 -14.49219,10.89844 -14.49219,16.69922 l 1.48437,0.0977 c 1.01563,-4.39453 2.71485,-7.79297 9.31641,-7.79297 6.38672,0 12.89063,6.99219 14.58984,8.88672 l 1.21094,0 c 0,0 19.49219,-13.59375 29.19922,-19.10157 l 0,-1.09375 c 0,0 -2.71484,-0.60546 -2.71484,-1.40625 l 0,-60.68359 c 0,-1.81641 3.61328,-4.60937 3.61328,-4.60937 z m 0,0"
         id="path9467"
         inkscape:connector-curvature="0" />
      <path
         style="fill:#211e1e;fill-opacity:1;fill-rule:nonzero;stroke:none"
         d="m 753.28516,269.125 -1.09375,-1.19141 c -0.89844,0.80078 -2.01172,1.89453 -2.91016,1.89453 -1.79688,0 -3.78906,-2.40234 -3.78906,-2.40234 l 0,-29.70703 4.6875,-4.58984 -1.28907,-1.40625 -3.71093,3.71093 -10,-8.71093 -0.58594,0 -10,9.29687 c -1.79688,-3.88672 -9.70703,-9.29687 -9.70703,-9.29687 l -0.60547,0 -8.78906,9.60937 0.99609,1.28906 c 0.89844,-0.80078 1.60156,-1.38672 2.40234,-1.38672 1.40625,0 3.59375,2.1875 3.59375,2.1875 l 0,30.09766 c 0,0.70313 -1.99218,1.50391 -1.99218,1.50391 l 0,0.89843 10.60547,8.20313 0.58593,0 7.91016,-8.59375 -0.60547,-1.11328 c -0.39062,0.3125 -0.89844,0.50781 -1.69922,0.50781 -1.1914,0 -3.6914,-2.30469 -3.6914,-2.30469 l 0,-27.98828 4.49218,-3.80859 c 2.5,1.40625 6.28907,5.09765 6.28907,5.09765 l 0,27.8125 c 0,0.9961 -1.28907,1.48438 -1.28907,1.48438 l 0,0.89844 9.90235,8.00781 0.60547,0 9.6875,-10 z m 0,0"
         id="path9469"
         inkscape:connector-curvature="0" />
      <path
         style="fill:#211e1e;fill-opacity:1;fill-rule:nonzero;stroke:none"
         d="m 793.08984,232.52344 -1.5039,-1.50391 -4.19922,3.80859 -10.9961,-8.10546 -0.99609,0 -21.40625,13.49609 0,0.89844 c 0,0 2.20703,0.70312 2.20703,1.40625 l 0,23.90625 c 0,0.70312 -2.01172,1.1914 -2.01172,1.1914 l 0,0.89844 12.59766,10.60547 0.60547,0 9.90234,-10 0.19531,0 0,23.49609 c 0,1.69922 -2.1875,3.4961 -2.1875,3.4961 l 0.78125,1.30859 c 0,0 7.40235,-5.09766 16.60157,-11.19141 l -0.89844,-1.5039 -3.08594,1.5039 -0.11719,-0.11718 0,-49.6875 4.51172,-3.90625 z m -15.60547,33.59375 -4.58984,4.10156 c -2.10937,-1.28906 -5.60547,-4.78516 -5.60547,-4.78516 l 0,-30.3125 0.80078,-0.60547 c 2.5,1.50391 9.39453,7.01172 9.39453,7.01172 l 0,24.58985 z m 0,0"
         id="path9471"
         inkscape:connector-curvature="0" />
      <path
         style="fill:#211e1e;fill-opacity:1;fill-rule:nonzero;stroke:none"
         d="m 841.79297,268.61719 -1.11328,-1.19141 c -0.89844,0.80078 -2.40235,2.40234 -3.1836,2.40234 -1.21093,0 -4.51172,-3.10546 -4.51172,-3.10546 l 0,-29.49219 4.39454,-4.19922 -1.38672,-1.50391 -2.8125,2.5 -8.69141,-7.30468 -0.60547,0 -8.49609,8.90625 0.80078,1.1914 c 0.39062,-0.29297 0.99609,-0.80078 1.60156,-0.80078 0.70313,0 4.10156,2.5 4.10156,2.5 l 0,27.91016 -4.60937,3.88672 c -2.28516,-1.28907 -5.89844,-5.19532 -5.89844,-5.19532 l 0,-28.20312 c 0,-0.9961 1.3086,-1.60156 1.3086,-1.60156 l 0,-0.9961 -9.00391,-7.59765 -0.60547,0 -8.78906,9.60937 0.89844,1.28906 c 0.89843,-0.80078 1.1914,-1.28906 1.99218,-1.28906 0.80078,0 3.10547,2.40234 3.10547,2.40234 l 0,29.19922 -4.51172,3.98438 1.40625,1.5039 3.39844,-3.10546 9.90234,8.80859 0.60547,0 10.48828,-9.70703 0.21485,0 0,1.8164 9.19922,7.89063 0.58593,0 10.21485,-10.50781 z m 0,0"
         id="path9473"
         inkscape:connector-curvature="0" />
      <path
         style="fill:#211e1e;fill-opacity:1;fill-rule:nonzero;stroke:none"
         d="m 859.77734,213.51953 0,-0.89844 c -3.78906,-2.98828 -7.5,-7.40234 -7.5,-7.40234 l -0.89843,0 c -2.98829,4.41406 -7.1875,7.5 -7.1875,7.5 l 0,0.89844 c 3.49609,2.71484 7.5,7.20703 7.5,7.20703 l 0.89843,0 c 2.98828,-4.00391 7.1875,-7.30469 7.1875,-7.30469 z m 6.11328,55.41016 -0.99609,-1.3086 c -0.89844,0.80078 -2.20703,2.10938 -3.00781,2.10938 -1.89453,0 -4.00391,-2.30469 -4.00391,-2.30469 l 0,-30.60547 4.70703,-4.58984 -1.30859,-1.40625 -3.69141,3.6914 -8.80859,-7.89062 -0.58594,0 -9.19922,9.39453 1.19141,1.30859 1.60156,-1.5039 c 2.30469,1.5039 5,4.29687 5,4.29687 l 0,28.61328 c 0,0.9961 -1.79687,1.48438 -1.79687,1.48438 l 0,0.89844 10.39062,8.00781 0.60547,0 9.90234,-10.19531 z m 0,0"
         id="path9475"
         inkscape:connector-curvature="0" />
      <path
         style="fill:#211e1e;fill-opacity:1;fill-rule:nonzero;stroke:none"
         d="m 904.6875,228.03125 -1.19141,-0.60547 c -1.60156,2.5 -3.80859,3.00781 -6.01562,3.00781 -3.69141,0 -6.69922,-3.71093 -6.69922,-3.71093 l -0.89844,0 -6.60156,7.59765 -8.59375,-7.59765 -0.70313,0 -9.0039,9.60937 1.21094,1.19141 c 0.89843,-0.80078 1.38671,-1.40625 2.1875,-1.40625 1.21093,0.41015 3.80859,2.71484 3.80859,2.71484 l 0,29.6875 c 0,0.70313 -1.60156,1.50391 -1.60156,1.50391 l 0,0.89843 10.70312,8.20313 0.60547,0 12.98828,-11.69922 -1.28906,-1.30859 c -0.89844,0.80078 -4.60938,4.0039 -5.41016,4.0039 -1.09375,0 -4.90234,-2.79297 -4.90234,-2.79297 l 0,-30.80078 1.50391,0 c 2.5,2.5 5,3.4961 7.79296,3.4961 4.70704,0 10.21485,-7.89063 12.10938,-11.99219 z m 0,0"
         id="path9477"
         inkscape:connector-curvature="0" />
      <path
         style="fill:#211e1e;fill-opacity:1;fill-rule:nonzero;stroke:none"
         d="m 932.08984,244.22266 0,-0.80079 -11.89453,-17.1875 -1.21094,0 -20,14.39454 0,0.89843 c 0,0 2.10938,0.80078 2.10938,1.50391 l 0,22.98828 c 0,0.60547 -1.91406,1.11328 -1.91406,1.11328 l 0,0.89844 14.19922,11.09375 0.80078,0 15.60547,-13.80859 -1.40625,-1.58204 -8.39844,6.99219 c -2.1875,-1.40625 -7.79297,-6.21094 -7.79297,-6.21094 l 0,-7.89062 19.90234,-12.40234 z m -10.19531,3.80859 -9.70703,6.28906 0,-18.49609 0.89844,-0.70313 8.80859,12.91016 z m 0,0"
         id="path9479"
         inkscape:connector-curvature="0" />
      <path
         style="fill:#211e1e;fill-opacity:1;fill-rule:nonzero;stroke:none"
         d="m 970.1875,228.03125 -1.19141,-0.60547 c -1.60156,2.5 -3.80859,3.00781 -6.01562,3.00781 -3.69141,0 -6.69922,-3.71093 -6.69922,-3.71093 l -0.89844,0 -6.60156,7.59765 -8.59375,-7.59765 -0.70313,0 -9.0039,9.60937 1.21094,1.19141 c 0.89843,-0.80078 1.38671,-1.40625 2.1875,-1.40625 1.21093,0.41015 3.80859,2.71484 3.80859,2.71484 l 0,29.6875 c 0,0.70313 -1.60156,1.50391 -1.60156,1.50391 l 0,0.89843 10.70312,8.20313 0.60547,0 12.98828,-11.69922 -1.28906,-1.30859 c -0.89844,0.80078 -4.60938,4.0039 -5.41016,4.0039 -1.09375,0 -4.90234,-2.79297 -4.90234,-2.79297 l 0,-30.80078 1.50391,0 c 2.5,2.5 5,3.4961 7.79296,3.4961 4.70704,0 10.21485,-7.89063 12.10938,-11.99219 z m 0,0"
         id="path9481"
         inkscape:connector-curvature="0" />
    </g>
  </g>
</svg>
